<?xml version="1.0" encoding="utf-8"?>
<!-- Generator: Adobe Illustrator 25.0.0, SVG Export Plug-In . SVG Version: 6.00 Build 0)  -->
<svg version="1.1" id="Layer_1" xmlns="http://www.w3.org/2000/svg" xmlns:xlink="http://www.w3.org/1999/xlink" x="0px" y="0px"
	 viewBox="0 0 16 16" style="enable-background:new 0 0 16 16;" xml:space="preserve">
<style type="text/css">
	.st0{fill:#FFFFFF;}
	.st1{fill:#0E1728;}
</style>
<g>
	<path class="st0" d="M13.9,2.5c0-0.3-0.1-0.6-0.3-0.9c-0.5-0.8-1.2-1.3-2.1-1.5C11.3,0,10.9,0,10.6,0c-0.5,0-0.9,0.2-1.4,0.4
		C8.8,0.7,8.4,1,8,1.3C7.6,1.6,7.1,1.9,6.7,2.2C6.5,2.3,6.2,2.4,6,2.4c-0.3,0-0.6,0-0.9-0.1C4.8,2.3,4.5,2.2,4.2,2.1
		C3.8,2,3.5,2,3.2,2.3c0,0-0.1,0.1-0.1,0.1c-0.4,0.2-0.6,0.6-0.8,1C2.1,3.7,2,4,2,4.3c0,0.1,0,0.2,0,0.3c0,0.6,0.2,1.2,0.4,1.8
		c0,0.1,0.1,0.1,0.1,0.2c0.4,0.6,0.9,1,1.5,1.3C4.2,7.9,4.3,8,4.5,8c0.1,0,0.1,0,0.2,0.1c0.1,0.1,0.1,0.1,0.1,0.2
		c0,0.3-0.1,1.3-0.1,1.7c0,0,0,0.1,0.1,0.2c0,0,0.1,0.1,0.2,0.2c0.1,0,0.2,0,0.3,0c0.3,0,0.5-0.2,0.8-0.3C6.3,9.9,6.7,9.8,7,9.7
		C7.4,9.7,7.6,9.6,8,9.6c0.1,0,0.3,0,0.4,0.1c0.2,0,0.5,0,0.7,0.1c0.2,0,0.4,0.1,0.5,0.1c0.3,0.1,0.7,0.2,1,0.3
		c0.1,0,0.2,0.1,0.3,0.1c0.1,0.1,0.2,0,0.2-0.1c0,0,0-0.1,0-0.1v0C11,9.7,11,9.3,11,9c0-1,0-1,0-1.3c0-0.1,0-0.2,0-0.3
		c0-0.2,0.1-0.2,0.3-0.3c0,0,0,0,0.1,0c0.2,0,0.3-0.1,0.5-0.1c0.3-0.1,0.5-0.3,0.6-0.5C13.6,5.4,14.2,4.1,13.9,2.5z"/>
	<path class="st1" d="M3.8,6c0,0.1,0,0.2,0,0.3C4,6.7,4.2,6.9,4.6,6.9c0,0,0,0,0,0c0.3,0,0.3,0.1,0.3,0.3c0,0.1,0,0.2,0,0.2
		c0,0.1,0,0.1-0.1,0.1c0,0,0,0-0.1,0C3.8,7.3,3.2,6.8,2.8,6C2.6,5.6,2.5,5.2,2.5,4.8c0-0.4,0-0.7,0.1-1.1c0.1-0.3,0.3-0.6,0.5-0.9
		c0.2-0.2,0.5-0.3,0.8-0.3c0.2,0,0.3,0.1,0.5,0.1C4.7,2.7,5,2.8,5.3,2.9C5.9,3,6.4,2.9,6.9,2.6c0.5-0.3,1-0.7,1.5-1
		C8.8,1.3,9.2,1,9.6,0.8c0.5-0.2,1-0.4,1.6-0.3c0.5,0,0.9,0.2,1.3,0.5c0.4,0.3,0.8,0.7,1,1.3c0.1,0.3,0.1,0.6,0.1,1
		c0,1.2-0.5,2.2-1.4,3.1c-0.2,0.2-0.4,0.3-0.7,0.4c-0.1,0-0.2,0-0.3,0c-0.1,0-0.1,0-0.2-0.1c-0.1-0.1-0.1-0.1,0-0.2
		c0,0,0.1-0.1,0.1-0.1c0.1-0.1,0.1-0.1,0.1-0.2c0,0-0.1,0-0.1,0.1c-0.2,0.1-0.3,0.1-0.5,0c-0.3-0.3-0.6-0.4-1-0.5
		c-0.2,0-0.3-0.1-0.5-0.1C9,5.5,9,5.5,9,5.4c0,0,0,0,0,0c0,0,0-0.1,0-0.1c0,0-0.1,0-0.1,0.1C8.8,5.4,8.7,5.5,8.5,5.6
		c-0.4,0-0.7,0.1-1.1,0.2c0,0-0.1,0-0.1,0c0,0-0.1,0-0.1-0.1c0,0,0-0.1,0-0.1c0,0-0.1,0-0.1,0c0,0,0,0-0.1,0.1C6.8,5.9,6.5,6,6.2,6
		C6,6.1,5.8,6.1,5.6,6C5.5,6,5.4,5.9,5.2,5.9c0,0,0,0-0.1,0s0,0,0,0.1c0,0.1,0.1,0.1,0.1,0.1c0,0,0.1,0.1,0.1,0.1c0,0,0,0.1,0,0.1
		C5.2,6.4,5,6.6,4.7,6.6C4.3,6.7,4.1,6.5,3.9,6.2C3.8,6.1,3.8,6.1,3.8,6z"/>
	<path class="st1" d="M10.7,6.9c0,0.3,0,0.7-0.1,1.1c0,0.3,0,0.6,0,1c0,0.2,0,0.3,0,0.5c0,0,0,0.1,0,0.1c0,0.1,0,0.1-0.1,0.1
		C10.3,9.6,10,9.5,9.8,9.5C9.1,9.2,8.3,9.2,7.5,9.2c-0.6,0-1.3,0.2-1.8,0.5C5.6,9.8,5.5,9.8,5.3,9.9c0,0-0.1,0-0.1,0
		c0,0-0.1,0-0.1-0.1c0-0.1,0-0.1,0-0.2C5.2,9.3,5.2,9,5.2,8.7c0-0.2,0.1-0.5,0.1-0.7c0-0.3,0.1-0.6,0-0.9c0-0.2,0-0.2,0.1-0.2
		C6,6.6,6.7,6.4,7.3,6.2C7.7,6.1,8.1,6,8.6,6C9,5.9,9.4,5.9,9.9,6.1c0.3,0.1,0.5,0.3,0.7,0.6C10.6,6.7,10.7,6.8,10.7,6.9z"/>
	<path class="st0" d="M8.6,2.7c-0.1,0-0.3,0-0.4,0C8,2.7,7.9,2.7,7.7,2.8C7.6,2.9,7.5,3,7.3,3.1C7.1,3.4,6.8,3.5,6.4,3.6
		c-0.5,0.1-1,0.1-1.5-0.2c0,0,0,0,0,0c0,0-0.1,0,0-0.1c0,0,0,0,0.1,0c0.1,0,0.2,0,0.3,0C6,3.4,6.6,3.2,7.1,2.8
		c0.2-0.1,0.3-0.2,0.5-0.3c0.3-0.1,0.6-0.1,0.9,0c0,0,0.1,0,0.1,0c0.1,0,0.1,0.1,0.1,0.1C8.7,2.7,8.7,2.7,8.6,2.7z"/>
	<g>
		<path class="st0" d="M7.5,11.7c0.1,0,0.2,0.1,0.4,0.2c0,0,0.1,0,0.1,0c0.1,0,0.1-0.1,0.1-0.1c0.2-0.1,0.3-0.2,0.5-0.2
			s0.4,0,0.6,0.1c0.2,0.1,0.3,0.2,0.5,0.3c0.1,0.1,0.3,0.3,0.4,0.4c0.1,0.1,0.2,0.2,0.3,0.3c0.2,0.2,0.4,0.3,0.5,0.4
			c0.2,0.2,1.1,0.9,1.2,0.8c0,0,0.1,0,0.1,0c0,0,0-0.1,0-0.1c0,0,0,0,0,0c0,0,0,0-0.1,0c0,0,0,0-0.1-0.1c-0.1,0-0.2-0.2-0.1-0.4
			c0-0.2,0.2-0.3,0.2-0.3c0.2-0.1,0.4-0.1,0.5,0c0.3,0.1,0.5,0.2,0.6,0.4c0.2,0.3,0.2,0.6,0.2,1c-0.1,0.4-0.3,0.8-0.7,1.1
			c-0.4,0.3-0.9,0.4-1.3,0.5c-0.1,0-0.3,0-0.4,0c-0.1,0-0.2,0-0.4,0c-0.2-0.1-0.4-0.1-0.6-0.2c-0.4-0.1-0.8-0.3-1.1-0.6
			c-0.2-0.1-0.5-0.3-0.7-0.3c-0.1,0-0.2-0.1-0.4,0c-0.2,0.1-0.4,0.2-0.6,0.2c-0.2,0.1-0.4,0.2-0.6,0.3c-0.4,0.2-0.8,0.3-1.2,0.4
			c-0.2,0-0.4,0.1-0.6,0.1c-0.1,0-0.3,0-0.4,0c-0.1,0-0.2,0-0.3,0c-0.4-0.1-0.7-0.2-1-0.5c-0.1-0.1-0.4-0.3-0.5-0.7
			c-0.1-0.3-0.1-0.5-0.1-0.7c0-0.1,0-0.2,0.1-0.3c0-0.1,0.1-0.3,0.2-0.5c0.1-0.2,0.3-0.3,0.5-0.4c0.1,0,0.2-0.1,0.3-0.1
			c0.1,0,0.2,0,0.4,0c0,0,0.2,0.1,0.3,0.3c0,0,0.1,0.2,0,0.3c0,0,0,0.1-0.2,0.3l0,0l0,0c-0.1,0-0.1,0-0.1,0.1c0,0,0,0.1,0,0.1
			c0,0,0,0,0.1,0c0,0,0,0,0.1,0c0,0,0.1,0,0.1,0c0.2-0.1,0.5-0.3,0.7-0.4c0.4-0.3,0.7-0.5,1-0.8c0,0,0.1-0.1,0.1-0.1
			c0.2-0.1,0.3-0.3,0.5-0.4c0.2-0.1,0.3-0.2,0.5-0.3c0.1-0.1,0.2-0.1,0.4-0.1C7.2,11.6,7.4,11.6,7.5,11.7z"/>
		<g>
			<path class="st0" d="M13.1,13.9c0-0.1-0.1-0.4-0.3-0.5c-0.3-0.2-0.7-0.2-0.7-0.1c0,0,0,0.1,0,0.2c0,0,0.2,0.1,0.3,0.2
				c0,0.1,0,0.2,0,0.2c0,0,0,0.1-0.1,0.2c0,0-0.1,0.1-0.2,0.1c-0.2,0-0.4-0.1-0.4-0.1c-0.5-0.3-1.4-0.9-1.9-1.6c0,0-0.1-0.2-0.3-0.3
				C9.2,12.1,9.1,12,9.1,12c-0.1,0-0.2-0.1-0.4-0.1C8.5,12,8.5,12,8.4,12c-0.1,0-0.1,0.1-0.3,0.2C8,12.3,8,12.3,7.9,12.3
				c0,0-0.1,0-0.2-0.1c-0.1-0.1-0.2-0.1-0.2-0.2c0,0-0.1-0.1-0.2-0.1c0,0-0.2,0-0.4,0c-0.2,0.1-0.3,0.2-0.4,0.3
				C6.2,12.5,6,12.6,6,12.7c0,0-0.9,0.9-1.8,1.4c-0.1,0-0.2,0.1-0.4,0c-0.1,0-0.2-0.2-0.2-0.3c0-0.1,0.1-0.2,0.1-0.3
				c0.1-0.1,0.3-0.2,0.3-0.2c0,0,0-0.1,0-0.1c0-0.1-0.4-0.2-0.6-0.1c-0.4,0.1-0.7,0.6-0.7,1c0,0.3,0.1,0.4,0.1,0.5
				c0.2,0.4,0.6,0.6,0.8,0.7c0.5,0.2,1.1,0.2,1.4,0.1c0.3,0,0.6-0.1,0.8-0.2c0.1,0,0.4-0.1,0.7-0.3c0.3-0.1,0.4-0.2,0.8-0.4
				c0.2-0.1,0.3-0.1,0.5-0.1c0.1,0,0.2,0,0.5,0.1c0.4,0.1,0.5,0.3,0.9,0.5c0.1,0.1,0.4,0.2,0.7,0.3c0.3,0.1,0.8,0.3,1.5,0.3
				c0.2,0,0.5,0,0.7-0.2c0.1-0.1,0.6-0.3,0.8-0.8C13,14.6,13.2,14.3,13.1,13.9z"/>
			<g>
				<path class="st1" d="M12.9,13.9c0-0.1,0-0.2-0.1-0.3c-0.2-0.2-0.4-0.2-0.5-0.2c0,0,0.1,0,0.1,0.1c0.1,0.1,0.1,0.1,0.1,0.1
					c0.1,0.1,0.1,0.1,0.1,0.2c0,0.1,0.1,0.2,0,0.4c-0.1,0.2-0.3,0.3-0.5,0.4c-0.2,0-0.4-0.1-0.7-0.2c-0.8-0.5-1.5-1.1-1.9-1.5
					c0,0-0.1-0.1-0.2-0.2c-0.2-0.1-0.2-0.2-0.4-0.2c-0.1,0-0.3-0.1-0.5,0c-0.1,0-0.1,0.1-0.1,0.1c-0.2,0.1-0.2,0.2-0.3,0.2
					c0,0-0.1,0-0.1,0c-0.1,0-0.2-0.1-0.3-0.2c-0.1,0-0.2-0.1-0.3-0.1c0,0-0.1,0-0.1,0c-0.1,0-0.1,0-0.2,0.1c0,0-0.3,0.1-0.5,0.4l0,0
					c0,0-0.1,0-0.1,0.1c-0.8,0.7-1.4,1.1-2,1.5c-0.1,0.1-0.3,0.2-0.6,0.1c-0.1,0-0.3-0.1-0.4-0.2c-0.2-0.2,0-0.6,0.1-0.7
					c0.1-0.1,0.2-0.1,0.2-0.1c0,0-0.1,0-0.1,0c-0.2,0-0.4,0.2-0.5,0.3c-0.2,0.2-0.2,0.5-0.2,0.6c0,0,0,0.2,0.1,0.4
					c0.1,0.3,0.4,0.4,0.5,0.5c0,0,0.2,0.1,0.5,0.2c0.2,0.1,0.5,0.1,0.8,0c0.7-0.1,1.2-0.3,1.6-0.5c0.3-0.2,0.6-0.3,0.8-0.4
					c0.3-0.1,0.4-0.2,0.6-0.2c0.2,0,0.3,0,0.7,0.2c0.1,0,0.2,0.1,0.3,0.1c0.3,0.1,0.4,0.3,0.5,0.3c0.2,0.1,0.8,0.5,1.5,0.6
					c0.5,0.1,0.8,0,0.9,0c0.1,0,0.3-0.1,0.4-0.2C12.6,15,13,14.4,12.9,13.9z"/>
			</g>
		</g>
	</g>
</g>
</svg>
