<?xml version="1.0" encoding="utf-8"?>
<!-- Generator: Adobe Illustrator 25.0.0, SVG Export Plug-In . SVG Version: 6.00 Build 0)  -->
<svg version="1.1" id="Layer_1" xmlns="http://www.w3.org/2000/svg" xmlns:xlink="http://www.w3.org/1999/xlink" x="0px" y="0px"
	 viewBox="0 0 32 32" style="enable-background:new 0 0 32 32;" xml:space="preserve">
<style type="text/css">
	.st0{fill:#010101;}
	.st1{fill:#FFFFFF;}
	.st2{fill:#0E1728;}
</style>
<path class="st0" d="M16,7.6"/>
<g>
	<path class="st1" d="M27.8,5.1c-0.1-0.6-0.2-1.2-0.6-1.8c-1-1.5-2.3-2.6-4.1-3c-0.6-0.2-1.3-0.2-1.9-0.2c-1,0.1-1.8,0.4-2.7,0.9
		c-0.9,0.5-1.7,1-2.5,1.6c-0.9,0.6-1.7,1.2-2.6,1.8C13,4.7,12.5,4.9,12,4.9c-0.6,0-1.2,0-1.8-0.2C9.7,4.6,9.1,4.5,8.5,4.3
		c-0.7-0.2-1.4-0.1-2,0.3C6.3,4.7,6.2,4.7,6.2,4.8C5.4,5.3,4.9,6,4.5,6.8C4.3,7.4,4.1,8,4.2,8.7c0,0.2,0,0.3,0,0.5
		c-0.1,1.3,0.3,2.4,0.8,3.5C5,12.9,5.1,13,5.2,13.1c0.7,1.2,1.7,2,2.9,2.6c0.3,0.2,0.6,0.3,1,0.3c0.2,0,0.3,0.1,0.3,0.1
		c0.1,0.1,0.1,0.3,0.1,0.4c0,0.6-0.1,2.7-0.1,3.3c0,0.1,0,0.3,0.1,0.5c0,0.1,0.1,0.3,0.3,0.4c0.1,0.1,0.3,0.1,0.5,0
		c0.5-0.1,1-0.3,1.5-0.5c0.7-0.3,1.4-0.6,2.2-0.8c0.6-0.1,1.2-0.3,1.8-0.2c0.3,0,0.6,0.1,0.9,0.1c0.5,0.1,0.9,0.1,1.4,0.2
		c0.4,0.1,0.7,0.2,1.1,0.3c0.7,0.1,1.3,0.4,1.9,0.7c0.2,0.1,0.3,0.2,0.5,0.3c0.3,0.1,0.4,0.1,0.4-0.2c0-0.1,0-0.2,0-0.3v0
		C22,19.3,22,18.5,22,17.9c-0.1-2.1,0-2.1,0-2.6c0-0.2,0-0.4,0-0.5c0-0.3,0.2-0.5,0.5-0.5c0,0,0.1,0,0.1,0c0.3,0,0.7-0.1,1-0.2
		c0.5-0.2,0.9-0.5,1.3-0.9C27.1,10.9,28.2,8.3,27.8,5.1z"/>
	<path class="st2" d="M7.6,12.1c0,0.2,0,0.4,0.1,0.6c0.3,0.7,0.7,1.1,1.5,1.2c0,0,0,0,0,0c0.5,0.1,0.6,0.3,0.6,0.7
		c0,0.2,0,0.3,0,0.5c0,0.2-0.1,0.2-0.2,0.2c0,0-0.1,0-0.1,0c-1.7-0.6-3-1.6-3.8-3.3c-0.3-0.7-0.5-1.5-0.6-2.3C5,9,5.1,8.3,5.3,7.6
		c0.2-0.7,0.5-1.3,1.1-1.7c0.5-0.4,1-0.6,1.6-0.6c0.3,0,0.6,0.1,0.9,0.2c0.6,0.2,1.2,0.3,1.9,0.5c1.1,0.3,2.2,0.1,3.2-0.5
		c1-0.7,2-1.4,3-2.1c0.7-0.5,1.5-1,2.3-1.4c1-0.5,2-0.7,3.1-0.6c0.9,0.1,1.8,0.4,2.5,1c0.9,0.7,1.6,1.5,1.9,2.5
		C26.9,5.3,27,5.9,27,6.6c-0.1,2.4-1,4.4-2.8,6.1c-0.4,0.4-0.8,0.6-1.4,0.7c-0.2,0-0.4,0-0.6,0c-0.1,0-0.2-0.1-0.3-0.2
		c-0.1-0.2-0.1-0.2,0-0.4c0.1-0.1,0.2-0.2,0.2-0.2c0.1-0.1,0.2-0.3,0.1-0.5c-0.1,0-0.1,0.1-0.2,0.1c-0.3,0.2-0.6,0.3-0.9-0.1
		c-0.5-0.6-1.2-0.8-2-1c-0.3-0.1-0.6-0.1-1-0.1c-0.2,0-0.3-0.1-0.2-0.3c0,0,0,0,0,0c0-0.1,0.1-0.2,0-0.2c-0.1-0.1-0.1,0.1-0.2,0.1
		c-0.2,0.3-0.5,0.5-0.9,0.5c-0.7,0.1-1.4,0.3-2.1,0.4c-0.1,0-0.1,0-0.2,0c-0.1,0-0.2,0-0.1-0.1c0-0.1,0.1-0.2,0-0.2
		c-0.1,0-0.2-0.1-0.3,0c0,0-0.1,0.1-0.1,0.1c-0.4,0.4-1,0.6-1.5,0.7c-0.4,0.1-0.8,0-1.2-0.1c-0.2-0.1-0.4-0.1-0.7-0.2
		c0,0-0.1,0-0.1,0c0,0,0,0.1,0,0.1c0,0.1,0.1,0.2,0.2,0.3c0.1,0.1,0.2,0.2,0.3,0.3c0.1,0.1,0.1,0.2,0,0.2c-0.5,0.2-0.9,0.4-1.4,0.5
		c-0.7,0.1-1.3-0.2-1.7-0.9C7.8,12.2,7.8,12.2,7.6,12.1z"/>
	<path class="st2" d="M21.2,13.9c-0.1,0.7-0.1,1.4-0.1,2.1c0,0.6,0,1.3,0,1.9c0,0.3,0,0.7,0.1,1c0,0.1,0,0.1,0,0.2
		c0,0.2-0.1,0.2-0.3,0.2c-0.4-0.1-0.9-0.3-1.3-0.4c-1.5-0.5-3-0.6-4.6-0.5c-1.3,0.1-2.5,0.4-3.6,1c-0.2,0.1-0.4,0.2-0.7,0.3
		c-0.1,0-0.2,0-0.2,0s-0.2,0-0.2-0.1c0-0.1-0.1-0.3,0-0.4c0.1-0.6,0.1-1.2,0.2-1.8c0-0.5,0.1-0.9,0.2-1.4c0.1-0.6,0.1-1.2,0-1.8
		c-0.1-0.3,0-0.4,0.3-0.5c1.2-0.4,2.5-0.8,3.7-1.2c0.8-0.2,1.6-0.4,2.5-0.5c0.9-0.1,1.8-0.1,2.6,0.2c0.6,0.2,1.1,0.6,1.4,1.2
		C21.2,13.5,21.3,13.7,21.2,13.9z"/>
	<path class="st1" d="M17.2,5.4c-0.3,0-0.6,0-0.8,0c-0.3,0-0.7,0.2-0.9,0.3c-0.3,0.2-0.5,0.4-0.8,0.6c-0.6,0.4-1.2,0.8-1.9,0.9
		c-1,0.2-2,0.1-2.9-0.4c0,0,0,0,0,0c-0.1,0-0.1-0.1-0.1-0.2c0-0.1,0.1-0.1,0.2,0c0.2,0,0.4,0.1,0.6,0.1c1.4,0.1,2.6-0.3,3.8-1.1
		C14.6,5.4,15,5.2,15.4,5c0.6-0.2,1.2-0.2,1.8,0c0.1,0,0.1,0.1,0.2,0.1c0.1,0,0.1,0.1,0.1,0.2C17.4,5.5,17.4,5.4,17.2,5.4z"/>
	<g>
		<path class="st1" d="M15.1,23.3c0.2,0.1,0.4,0.3,0.7,0.5c0.1,0,0.1,0.1,0.2,0.1c0.1-0.1,0.2-0.1,0.3-0.2c0.3-0.2,0.6-0.4,1-0.4
			c0.4,0,0.8,0.1,1.1,0.2c0.3,0.2,0.6,0.4,0.9,0.7c0.3,0.2,0.5,0.5,0.8,0.8c0.2,0.2,0.4,0.3,0.5,0.5c0.4,0.4,0.7,0.6,0.9,0.8
			c0.4,0.3,2.1,1.7,2.4,1.6c0.1,0,0.1-0.1,0.1-0.1c0-0.1,0.1-0.1,0-0.2c0,0,0-0.1-0.1-0.1c0,0-0.1-0.1-0.1-0.1c0,0,0,0-0.2-0.1
			c-0.1-0.1-0.3-0.4-0.3-0.7c0.1-0.4,0.4-0.6,0.5-0.6c0.3-0.1,0.7-0.1,1.1,0c0.5,0.1,1,0.4,1.2,0.9c0.4,0.6,0.5,1.3,0.4,2
			c-0.2,0.9-0.6,1.6-1.3,2.2c-0.8,0.6-1.7,0.9-2.7,0.9c-0.3,0-0.5,0-0.8,0c-0.2,0-0.5,0-0.7-0.1c-0.4-0.1-0.8-0.2-1.3-0.4
			c-0.8-0.3-1.5-0.7-2.2-1.1c-0.4-0.3-0.9-0.5-1.4-0.7c-0.2-0.1-0.5-0.1-0.7,0c-0.4,0.1-0.8,0.3-1.2,0.5c-0.4,0.2-0.8,0.4-1.2,0.5
			c-0.8,0.3-1.6,0.6-2.4,0.8c-0.4,0.1-0.7,0.1-1.1,0.2c-0.3,0-0.6,0-0.8,0c-0.2,0-0.4,0-0.6-0.1c-0.7-0.2-1.5-0.4-2.1-0.9
			c-0.3-0.2-0.7-0.6-1-1.4C5,28.6,5,28.1,5,27.8c0-0.1,0.1-0.3,0.1-0.5c0.1-0.2,0.2-0.5,0.5-0.9c0.3-0.4,0.6-0.6,1-0.8
			c0.2-0.1,0.4-0.1,0.6-0.1c0.3,0,0.5,0,0.7,0.1c0.1,0,0.4,0.2,0.5,0.5c0,0.1,0.1,0.3,0.1,0.6c0,0-0.1,0.3-0.5,0.5l0,0l0,0
			c-0.2,0.1-0.2,0.1-0.2,0.1c0,0.1,0,0.1,0,0.2c0,0,0,0.1,0.1,0.1c0,0,0.1,0,0.1,0c0.1,0,0.1-0.1,0.2-0.1c0.5-0.2,0.9-0.5,1.4-0.8
			c0.7-0.5,1.4-1.1,2-1.7c0.1-0.1,0.2-0.2,0.3-0.3c0.3-0.2,0.6-0.5,0.9-0.7c0.3-0.2,0.5-0.4,0.9-0.6c0.3-0.1,0.5-0.2,0.8-0.2
			C14.5,23.2,14.8,23.2,15.1,23.3z"/>
		<g>
			<path class="st1" d="M26,27.7c0-0.2-0.2-0.7-0.6-1c-0.5-0.4-1.3-0.4-1.4-0.2c-0.1,0.1,0,0.2,0.1,0.4c0.1,0,0.4,0.1,0.5,0.5
				c0.1,0.2,0,0.3,0,0.4c0,0.1-0.1,0.3-0.2,0.4c0,0-0.2,0.1-0.3,0.1c-0.4,0-0.8-0.2-0.8-0.2c-0.9-0.6-2.7-1.8-3.8-3.1
				c0,0-0.3-0.3-0.7-0.7c-0.3-0.3-0.5-0.4-0.6-0.4c-0.2-0.1-0.4-0.2-0.7-0.1c-0.3,0-0.4,0.1-0.5,0.2c-0.1,0.1-0.2,0.1-0.6,0.4
				c-0.2,0.1-0.2,0.2-0.3,0.2c-0.1,0-0.2,0-0.3-0.2c-0.2-0.2-0.3-0.3-0.5-0.4c-0.1-0.1-0.2-0.1-0.4-0.2c-0.1,0-0.3-0.1-0.8,0.1
				c-0.4,0.1-0.6,0.3-0.8,0.5c-0.7,0.5-1,0.8-1.1,0.9c0,0-1.9,1.9-3.6,2.7C8.2,28,7.9,28.2,7.6,28c-0.2-0.1-0.4-0.3-0.4-0.6
				c0-0.2,0.1-0.4,0.2-0.5c0.2-0.3,0.5-0.4,0.7-0.4c0-0.1,0.1-0.2,0.1-0.2C8,26.1,7.3,26,6.9,26.1c-0.8,0.2-1.3,1.2-1.3,2.1
				c0,0.5,0.2,0.9,0.3,1c0.4,0.9,1.2,1.2,1.6,1.4c1.1,0.5,2.1,0.3,2.7,0.2c0.6-0.1,1.2-0.2,1.6-0.4c0.3-0.1,0.8-0.3,1.5-0.6
				c0.6-0.3,0.9-0.4,1.6-0.7c0.4-0.2,0.7-0.2,1-0.2c0.2,0,0.5,0,0.9,0.2c0.7,0.3,1.1,0.5,1.7,0.9c0.2,0.1,0.7,0.4,1.3,0.6
				c0.6,0.3,1.7,0.7,3,0.6c0.4,0,0.9-0.1,1.5-0.3c0.3-0.1,1.2-0.6,1.7-1.6C25.9,29.1,26.2,28.5,26,27.7z"/>
			<g>
				<path class="st2" d="M25.6,27.7c0-0.1-0.1-0.4-0.3-0.6c-0.3-0.3-0.9-0.5-0.9-0.4c0.1,0,0.1,0.1,0.2,0.1c0.2,0.1,0.2,0.1,0.2,0.1
					c0.1,0.1,0.2,0.2,0.2,0.3c0,0.1,0.1,0.5-0.1,0.8c-0.2,0.4-0.6,0.6-0.9,0.7c-0.5,0.1-0.9-0.1-1.4-0.4c-1.5-1-3-2.2-3.8-3
					c0,0-0.2-0.2-0.5-0.5c-0.3-0.3-0.5-0.4-0.7-0.5c-0.1,0-0.5-0.2-0.9,0c-0.1,0-0.2,0.1-0.3,0.2c-0.3,0.2-0.4,0.4-0.6,0.5
					c-0.1,0-0.2,0-0.2,0c-0.3,0-0.3-0.3-0.7-0.5c-0.1-0.1-0.4-0.2-0.7-0.2c-0.1,0-0.2,0-0.2,0c-0.1,0-0.2,0.1-0.4,0.1
					c-0.1,0-0.5,0.2-1,0.7l0,0c0,0-0.1,0.1-0.2,0.1c-1.5,1.3-2.7,2.3-4,2.9c-0.2,0.1-0.7,0.3-1.1,0.2c-0.1,0-0.5-0.1-0.7-0.4
					c-0.3-0.5-0.1-1.2,0.3-1.4c0.2-0.2,0.4-0.2,0.4-0.2c-0.1,0-0.2-0.1-0.3-0.1c-0.5,0-0.8,0.4-0.9,0.6C6,27.4,6,28,6,28.2
					c0,0.1,0,0.4,0.2,0.8c0.3,0.5,0.7,0.8,1,1c0.1,0.1,0.5,0.3,1,0.4c0.5,0.1,1,0.2,1.7,0.1c1.3-0.2,2.4-0.7,3.1-1
					c0.6-0.4,1.2-0.6,1.6-0.8c0.5-0.2,0.8-0.3,1.1-0.3c0.3,0,0.7,0,1.5,0.4c0.2,0.1,0.4,0.2,0.5,0.3c0.5,0.3,0.9,0.5,1,0.6
					c0.4,0.2,1.5,0.9,2.9,1.1c0.9,0.2,1.5,0,1.7,0c0.2,0,0.5-0.1,0.9-0.3C25.1,29.9,25.9,28.6,25.6,27.7z"/>
			</g>
		</g>
	</g>
</g>
</svg>
