<svg xmlns="http://www.w3.org/2000/svg" viewBox="0 0 721.33 162.15"><defs><style>.cls-1{fill:#fff;}</style></defs><g id="Layer_2" data-name="Layer 2"><g id="Layer_1-2" data-name="Layer 1"><path class="cls-1" d="M205.94,121a6.58,6.58,0,0,0-3.11-1.23,53.12,53.12,0,0,0-17.11-1A36.75,36.75,0,0,0,165,127.87c-2.39,2.13-4.76,4.24-8.11,4.81a17.52,17.52,0,0,1-8-.12c-.89-.26-1.19-.67-.58-1.53a17.75,17.75,0,0,1,2.71-3c1.9-1.71,3.84-3.38,5.7-5.13,3.23-3.05,2.44-7.05.41-9.76a3.43,3.43,0,0,0-2.43-1.52,3.8,3.8,0,0,0-2.68,1.17c-4,3.6-17.88,12-22.7,14.37A36.27,36.27,0,0,1,114,130.78a74,74,0,0,1-7.56-.22c-2.5-.2-4.81-.5-6.92-.87A82.54,82.54,0,0,1,87.14,127a34.75,34.75,0,0,1-9.81-4.39c-2.67-1.78-3.55-3-4.06-3.92a10.5,10.5,0,0,1-1-6.85,19.48,19.48,0,0,1,1.7-5c4.27-9.41,11.51-16.43,18.93-23.26A95.59,95.59,0,0,1,103.77,75c2-1.7,3.68-3,4.92-3.92,2.91-2.13,5.31-3.58,7.76-5.06,2.12-1.28,3.84-2.24,4.78-2.77a102.42,102.42,0,0,1,9.81-5A34.23,34.23,0,0,1,145,55.14c4.82,0,7.42,3.4,6.19,8a29.07,29.07,0,0,1-5.73,11.49C140.88,80,136,85.07,131,90c-2.2,2.21-4.46,4.37-6.61,6.63-3.15,3.32-3.73,7.19-1.29,10.64,1.86,2.63,3.9,2.76,6,.3,5.44-6.37,11.11-12.55,16.28-19.15a76.91,76.91,0,0,0,8-11.62,60.66,60.66,0,0,0,5.38-16.57c1.17-5.87-2.42-9.5-6.73-10.51-1.7-.4-4.61-1.32-11.66-.17a77.18,77.18,0,0,0-13.45,3.67,129.67,129.67,0,0,0-12.12,5c-2.3,1.09-5,2.44-7.93,4.08-.64.36-3.93,2.19-7.38,4.43a144.61,144.61,0,0,0-15.7,12.12A121.34,121.34,0,0,0,67.18,98.49a38.42,38.42,0,0,0-4.05,8.05,19.13,19.13,0,0,0-1.59,8.09,15.1,15.1,0,0,0,1.67,6.31c2.11,4,5.65,5.72,9.3,7.48,2.89,1.39,6.36,2.25,13.29,4A109.4,109.4,0,0,0,98.19,135a110.55,110.55,0,0,0,11.12,1,117.34,117.34,0,0,0,17.28-.64,62.8,62.8,0,0,1-16.78,5.63c-12.59,2.3-22.57.09-29.81-1.6C62.15,135.15,45.54,126,39.49,122.63A84.87,84.87,0,0,0,30,118.2c-7.53-3-11.4-3.31-12.94-3.4a22.78,22.78,0,0,0-9.19,1.11,13.71,13.71,0,0,0-6.08,4A12.08,12.08,0,0,0,0,122.63a92.7,92.7,0,0,0,31.06,28A93.72,93.72,0,0,0,69.81,162c1.17.07,2.37.15,4.06.17,23.89.23,41.64-12.22,54.53-11,3.34.31,4.51.51,4.51.51,10.07,1.76,12,2.18,12,2.18,2,.3,2.44-.12,2-2.18a6.72,6.72,0,0,0-4.69-5.28c-1.92-.62-3.94-.59-5.89-1-1.34-.28-2.77-.33-4.06-1.26a21.82,21.82,0,0,1,7.11-3.82c1-.31,3-.63,6.86-1.28,1.44-.24,3.05-.47,6.21-.94,5.77-.85,7.19-1,8.09-.09s.31,1.64,1.36,3.07a6.74,6.74,0,0,0,3,2.15,39.88,39.88,0,0,0,18.16,3.6,32.68,32.68,0,0,0,16-5.12c2.36-1.52,4.23-3.52,4.52-6.45a7.33,7.33,0,0,1,1.77-4.07c1.71-2.11,2.54-3.19,2.82-4.4A6.1,6.1,0,0,0,205.94,121ZM19.41,129.45s.28-.36,2.56-.8h0a73.59,73.59,0,0,1,11.74-.22,34.3,34.3,0,0,1,10.55,2.72c2.33,1.26,5.5,2.87,9.32,4.61a129.41,129.41,0,0,0,18.6,7,122,122,0,0,0,27.23,4.09c6.21.06,13.84-.48,14.13,1,.13.67-1.14,1.61-3.32,2.55A86.41,86.41,0,0,1,74.56,157a93,93,0,0,1-18.38-3c-2.65-.71-5-1.44-7.3-2.28a95.11,95.11,0,0,1-10.24-4.46C26.63,140.92,18.5,130.64,19.41,129.45Zm181.92-2.59a3.14,3.14,0,0,1-2,1.55c-2.69,1-5.8,1.9-6.8,2.17,1.09.46,2,.9,2.65,1.25a8,8,0,0,1,3,2.46,1.49,1.49,0,0,1,.18.53,2.13,2.13,0,0,1-.76,1.59,14.07,14.07,0,0,1-3.37,2.49,31.23,31.23,0,0,1-11.07,3.4,16.65,16.65,0,0,1-9.88-1.91c-1.2-.71-3.49-2.07-3.6-4.12a4.48,4.48,0,0,1,1.22-2.87c.59-.83,1.83-2.33,6.34-4.88,2-1.11,3.59-1.88,4.61-2.34a31.37,31.37,0,0,1,6.43-2.34,31,31,0,0,1,4.68-.61c3.43-.3,4.62-.07,5.5.19s2.54.78,2.91,2A2.18,2.18,0,0,1,201.33,126.86Z"/><path class="cls-1" d="M569.74,126.47c-.59-3.44-2.15-6.32-6.58-6.14-.64,0-1.28,0-1.91.12-3.48.41-7,.91-10.44,1.25-5.95.58-11.91,1.06-17.86,1.58a1.51,1.51,0,0,0-1.26.55c1.14,3,1.35,3.14,4.23,3.15h11.86c-5.77,3.16-11.16,6.69-16.64,10.09A81.92,81.92,0,0,1,520.2,143a27.94,27.94,0,0,1-8.5,2.63,22.32,22.32,0,0,1,.82-2.23c.78-1.49,1.63-2.93,2.44-4.4a33.56,33.56,0,0,0,2.67-4.81,3.68,3.68,0,0,0-1-4.35c-4.34-4-10.82-5.12-15.83-2.54a93.12,93.12,0,0,0-9,5.48c-3,2-5.6,4.41-8.84,6.74a12.36,12.36,0,0,1,1.41-3.12c1.61-2.9,1.25-4.66-1.39-6.61a15.88,15.88,0,0,0-1.79-1.19,3.9,3.9,0,0,0-2.88-.53c-.7.19-1.12.63-2,1.51a16.44,16.44,0,0,0-2,2.6c-1.06,1.62-1.6,2.43-1.82,2.81a49.59,49.59,0,0,1-5.93,8.47s-3.29,3.2-13.85,6.36c-1.25.37-1.91-.27-2.05-1.59a4.63,4.63,0,0,1,.82-2.94c.87-1.43,1.73-2.87,2.6-4.31a7,7,0,0,0-1.4-8.94c-1.79-1.73-3.07-2.09-5.13-.83a3.1,3.1,0,0,1-3.35.16,17.45,17.45,0,0,0-8.87-1.52c-2.07.08-4.13.23-6.19.5a38.4,38.4,0,0,0-22.18,10.38,38.57,38.57,0,0,1-15,9.08,34.77,34.77,0,0,1-6,1.62c-1.8.25-2.09-.58-2.14-.69-.28-.63.49-1.48,1.44-2.61,0,0,2.71-3.58,5.17-7.2,1.88-2.76,1.69-4.24-.65-6.53a12.28,12.28,0,0,0-14.8-2c-2.51,1.4-4.9,3-7.33,4.55-2,1.26-1.94,1.28-3.19-.56a16.31,16.31,0,0,0-1.69-2.31c-2.84-2.88-6.22-4.85-11-3-1.64.62-3.24,1.36-4.82,2.13-2.29,1.1-4.54,2.27-6.91,3.47-.25-1.56-1.3-2.5-2.16-3.51-3.09-3.65-5.3-3.59-8.25.2-3.72,4.79-7.39,9.62-11.06,14.45a10.33,10.33,0,0,0-2.12,4.25,5,5,0,0,0,1.9,5.31c1.9,1.42,3.89,1.82,5.95.31a20.74,20.74,0,0,0,1.91-1.44c5.27-4.89,10.78-9.5,16.25-14.16a35.63,35.63,0,0,1,9.65-6.14c.41-.17.83-.45,1.23-.34a.79.79,0,0,1,.48.37c.23.48-.29,1.17-.48,1.42-2.95,4-5.65,8.13-8.34,12.29a17.21,17.21,0,0,0-1.47,2.74,4.74,4.74,0,0,0,2.31,6.3c2,1.08,3.93,1.22,5.77-.35.61-.52,1.27-1,1.84-1.53,2.21-2.22,7.49-7.24,9.9-9.41a72.78,72.78,0,0,1,6.54-5.52A51,51,0,0,1,376.4,138a17.66,17.66,0,0,1,4-1.48h0a1.81,1.81,0,0,1,.7.21c.41.44-2.09,3.45-3.23,4.85-1.46,1.8-.63.89-3.43,4.43-.82,1-3.2,4-4,6.71,0,.11-.08.31-.14.57-.43,2-.31,3.91,1.46,5.22a7.69,7.69,0,0,0,5.66,1.5,54.14,54.14,0,0,0,14.91-4.2c2.55-1.1,5.12-2.15,7.7-3.23.77,1.19,1.42,2.29,2.17,3.32a8.2,8.2,0,0,0,5.69,3.63,13.85,13.85,0,0,0,5.44-.58,94.1,94.1,0,0,0,21.13-8.31c.53-.3,1-.82,1.81-.64.06,1.17.08,2.35.18,3.53.32,3.94,2.55,5.87,6.51,5.67a11.34,11.34,0,0,0,1.43-.13,47.47,47.47,0,0,0,8.29-2.25c2.92-1.1,5.77-2.36,8.57-3.71.92-.45,1.66-.57,2.32.64a9.5,9.5,0,0,0,2.6,3.1c2.27,1.69,4.32,1.72,6.59,0,.38-.29.73-.62,1.09-.94,5.79-5.26,11.54-10.55,17.38-15.76a35.08,35.08,0,0,1,14.1-7.83,4.3,4.3,0,0,1-.6,2.32c-1,1.89-2.1,3.76-3.14,5.65-1.66,3-3.41,6-4.06,9.41a5.17,5.17,0,0,0,4,6.11,12.45,12.45,0,0,0,5.19-.21,49.75,49.75,0,0,0,9.27-3.18c2-.84,3.7-.78,5.15,1.05a3.57,3.57,0,0,0,3.46,1.16c1.74-.21,3.47-.52,5.21-.68,8.5-.77,16.93-2,25.4-3,2.62-.29,5-.95,6.62-3.25l.12-.16a3.9,3.9,0,0,0,0-1.23c-.25-.39-.41-.88-1.09-.76s-1.28.11-1.91.2c-5.59.87-11.18,1.77-16.77,2.63-3,.46-6,.86-9,1.31-.4.06-.84.23-1-.28s.25-.72.56-.94a26.92,26.92,0,0,1,2.78-1.86c7.71-4,15.44-8,23.16-12.08,3-1.59,6.06-3.22,9.1-4.83A3,3,0,0,0,569.74,126.47ZM439.82,139.66c-.36,1.2-1.49,2.08-3.74,3.83a40.1,40.1,0,0,1-3.94,2.67c-.58.35-1.73,1.05-3.22,1.82a50.62,50.62,0,0,1-6.75,2.81c-4,1.43-5.4,1.65-6.86,1.64-1.23,0-2.53-.11-3.06-.94-1.07-1.65,1.7-5.17,2.72-6.47,4-5,8.81-7.22,14.47-9.76a13.42,13.42,0,0,1,3.42-1c2-.31,4.34-.68,5.86.77A4.8,4.8,0,0,1,439.82,139.66Z"/><path class="cls-1" d="M506.62,66.29a6.4,6.4,0,0,0-2.15,1c-2.81,1.52-5.58,3.14-8.46,4.51s-6,2.61-9.55,2.47a17.21,17.21,0,0,1,2.27-5.63,16.45,16.45,0,0,0,2.71-5.56c.58-2.75-1.08-6.92-5.24-6.61a14.68,14.68,0,0,1-5.4-.78,31.38,31.38,0,0,0-17-.12,38.58,38.58,0,0,0-14.9,8A59.5,59.5,0,0,1,416.42,77a17.29,17.29,0,0,1-8.05-1.29,6.16,6.16,0,0,1,2.85-1A72.15,72.15,0,0,0,424.56,72a22.65,22.65,0,0,0,10.92-6.61c3.6-4.1,2.36-9.73-2.56-11.1a11.6,11.6,0,0,0-2.13-.27,49.56,49.56,0,0,0-7.61,0A30,30,0,0,0,406,60.58c-3.39,2.74-4.32,3.82-6.86,6-8.64,7.27-15.8,6.91-16.28,6.61a1.25,1.25,0,0,1-.63-1.07c0-.91,2.64-3.94,3.7-5.27a20.29,20.29,0,0,0,2.15-3.49c1.72-3.35.89-6.55-2.33-8.47s-6.61-2.32-10-.4c-2.22,1.26-4.38,2.63-6.53,4-2.38,1.52-2.33,1.52-4.05-.81-3.88-5.25-9.17-6.4-14.86-2.73-1.74,1.12-3.35,2.45-5.05,3.66-.42.3-.74.89-1.54.56a6.92,6.92,0,0,0-.54-2.73A4.24,4.24,0,0,0,336,54.82,18.31,18.31,0,0,0,334.17,57a60.36,60.36,0,0,0-4.11,5.89c-2.67,4.81-7,7-12.06,8.31a11.35,11.35,0,0,1-5.51,0,35.6,35.6,0,0,1,4-6.46c1.14-1.54,2.27-3.09,3.28-4.72,1.25-2,1-3.68-.6-5.42a12.89,12.89,0,0,0-1.8-1.58c-1.5-1.09-2.24-1.06-3.61.15-5.57,4.92-11.51,9.38-17.37,13.94A60.7,60.7,0,0,1,282.73,75c-.52.22-1.05.48-1.55,0s-.19-1,0-1.53A27.57,27.57,0,0,1,283.93,69c2-2.88,4.08-5.72,6-8.66s1.48-4.94-1.16-7.11c-2.12-1.75-3.88-1.54-5.43.74q-4.92,7.23-9.77,14.52a14.25,14.25,0,0,0-2.05,4.31,5.2,5.2,0,0,0,.76,4.57,8.75,8.75,0,0,0,3.92,3c2.54,1,4.86.2,7.18-.68a74.52,74.52,0,0,0,17.34-9.63,2.7,2.7,0,0,1,1.64-.75c-.53,1.39-1.05,2.55-1.42,3.77-1.13,3.73.77,6.61,4.62,7a12.85,12.85,0,0,0,4.05-.24,61.94,61.94,0,0,0,9.79-3.12c1.1-.46,2.26-1.25,3.38-1,1,.19,1.23,1.57,1.9,2.36.1.12.22.23.32.36,2,2.48,3.59,2.64,6.1.64a8.68,8.68,0,0,0,.7-.65c5.19-5.21,10.61-10.17,16-15.18a22.62,22.62,0,0,1,7-5c.44-.17.92-.46,1.3,0s0,.9-.23,1.3c-1.16,1.82-2.37,3.6-3.49,5.44a72.57,72.57,0,0,0-4.8,8.56,4.92,4.92,0,0,0,1.77,6.34c2.38,1.56,3.55,1.39,5.86-.89l2.72-2.71c4.81-4.79,9.56-9.65,14.62-14.19A23.18,23.18,0,0,1,378,58.72c.51-.25,1.11-.52,1.54,0s-.08.9-.32,1.29c-1.06,1.69-2.17,3.36-3.21,5.06-1.74,2.86-3.71,5.59-4.89,8.77-1.59,4.28.66,7.56,5.24,7.57a11.92,11.92,0,0,0,2.14-.2,55.69,55.69,0,0,0,11.57-3.83,63.69,63.69,0,0,1,6.73-2.89A9.81,9.81,0,0,0,405.3,82c5.85.95,11.62.29,17.34-.88,5.89-1.2,11.45-3.47,17.09-5.48,2.83-1,2.87-1,3.93,1.81a6.28,6.28,0,0,0,5.7,4.4,23.65,23.65,0,0,0,5.25-.18c4.2-.53,7.35-2.37,10.33-3.7,2-.89,5-2.21,8.75-3.78a1,1,0,0,1,.36.17c1,.76-.26,2.95.61,5.47a4.87,4.87,0,0,0,1,1.78A5.25,5.25,0,0,0,478,83c1.73.57,3.33.08,4.93-.35A73.75,73.75,0,0,0,496,77.43c2.66-1.29,5.3-2.63,7.89-4.05C507,71.67,507.85,69.24,506.62,66.29Zm-95-1a24.27,24.27,0,0,1,8.83-5.67,15.3,15.3,0,0,1,2-.64,20,20,0,0,1,6.89-.42,2.74,2.74,0,0,1,2,.87c.75,1,.14,2.59,0,3-.32.82-1.22,2.59-6.2,5a36.75,36.75,0,0,1-10.39,3.18c-3.22.51-5.76.91-6.32-.13C407.66,69.35,410.06,66.91,411.63,65.32ZM478.4,63c-.53,7.51-15.2,11.52-20.73,12-2.94.28-3.71-.4-4-.86-.55-.93.13-2.27.41-2.79a25.87,25.87,0,0,1,2.11-3.17,23.75,23.75,0,0,1,11-8.26c1-.32,8.17-2.75,10.47.19A4.1,4.1,0,0,1,478.4,63Z"/><path class="cls-1" d="M306.61,86.3c-4.62-.25-9.26-.24-13.88-.36-8.94-.22-17.89-.4-26.83-.59q-11.14-.22-22.27-.49c-.88,0-1.76-.08-2.64-.11s-1.32-.35-1-1.34c.54-1.5,1-3,1.49-4.54,1.3-4.35,5.51-17.14,16.33-36.39.87-1.56,2.64-4.38,6.15-10,0,0,12.85-20.72,22.47-25.46a5.17,5.17,0,0,1,3.44-.52,2.47,2.47,0,0,1,1.64,1A5,5,0,0,1,291.9,9c0,.27.07.54.09.82a18,18,0,0,1-2.28,9.19q-5.35,10.86-10.83,21.67a12.91,12.91,0,0,0-1.35,5.52c0,1,.37,1.22,1.28,1.09a12.39,12.39,0,0,0,7.56-4.26c3.9-4.22,5.91-8.47,7.75-12.57A52.76,52.76,0,0,0,297,22.74a45.69,45.69,0,0,0,1.4-7.72,21.5,21.5,0,0,0,.13-5.81c-.12-.71-.88-5.33-3.89-7.66-5.18-4-14.53.9-16.43,1.89-3.11,1.63-6.25,4-13.95,13.75a163.76,163.76,0,0,0-12.18,17c-8.69,14.06-11.4,21.47-14.08,29.3A125.82,125.82,0,0,0,233.4,81a4.76,4.76,0,0,1-4.29,4.16c-1.41.25-2.84.44-4.26.62a56.27,56.27,0,0,0-12.09,2.85c-2.8,1-5.42,3.34-4.85,7.06a8.7,8.7,0,0,0,4.23,6.1,17,17,0,0,0,14.7,1.93,12.31,12.31,0,0,0,7.74-6,9,9,0,0,1,9-4.82c1.67.09,3.33.38,5,.41,3.83.08,7.65.16,11.48.43,5.57.39,11.14.69,16.72,1,6.53.33,13.05.78,19.58,1.12,1.59.08,3.17.09,4.77.29a8,8,0,0,0,8.63-5C311,87.91,310,86.48,306.61,86.3Zm-76.58,7c.3.57-.64,1.6-1.68,2.73a13,13,0,0,1-3.44,3,8.63,8.63,0,0,1-5.73,1.27,4.9,4.9,0,0,1-3.09-1.55,3.3,3.3,0,0,1-.92-2.39c.14-1.53,1.71-2.4,2.22-2.68a8.34,8.34,0,0,1,3.79-.75,24.34,24.34,0,0,1,3.11,0c.75,0,1.8,0,3.06,0C229.44,93,229.88,93.05,230,93.34Z"/><path class="cls-1" d="M667.28,110.75a7.4,7.4,0,0,0-2-2.48,7.56,7.56,0,0,0-3-1.42c-3.91-1-8.79.15-10.1.46a51.56,51.56,0,0,0-9.91,3.49c-1.28.67-2.57,1.52-4,2.32a18.85,18.85,0,0,0-3.87,2.65c-.33.21-.85.56-1.46,1a31.85,31.85,0,0,0-6.17,6.08,47.32,47.32,0,0,1-15.85,12c-.63.29-1.42.82-2,.26s0-1.36.26-2c4.75-11.51,9.72-22.91,16.4-33.49,1.47-2.33,3.47-4.38,4.24-7.14a4.93,4.93,0,0,0-.5-4.84c-1.6-2.29-3.78-3.65-5.59-3.23a5.39,5.39,0,0,0-2.21,1.31,10.72,10.72,0,0,0-2.17,2.85c-4.06,7.61-8.13,15.22-12.13,22.86-2.34,4.46-4.5,9-6.85,13.47-1.49,2.8-2.73,5.86-5.55,7.67a70.61,70.61,0,0,1-11.65,6.11,6.67,6.67,0,0,1-3.89.52c1.22-2.33,2.28-4.46,3.44-6.54s2.47-4.11,3.62-6.21c1.53-2.79,1-4.61-1.76-6.18-.76-.44-1.55-.83-2.35-1.2-2.39-1.12-3.41-.83-4.75,1.42-1.14,1.92-2.26,3.86-3.33,5.82a162.78,162.78,0,0,0-7.82,15.91c-1.64,4,1.06,7.7,5.32,7.21a37.2,37.2,0,0,0,7.25-1.49c4.6-1.49,8.72-3.95,12.9-6.28,3.81-2.13,2.94-2.31,5.63,1a7.57,7.57,0,0,0,8.79,2.56,39.59,39.59,0,0,0,4.44-1.79,90.5,90.5,0,0,0,10.06-6c1.93-1.22,1.95-1.31,3.81.19,1.58,1.27,3.26,2.15,6.79,3.35a18.28,18.28,0,0,0,8.11.56c1.88-.17,14.6-1.46,21.53-9.67a32.45,32.45,0,0,0,4.34-7,31.68,31.68,0,0,0,1.32-3.66C667.76,117.41,668.82,113.84,667.28,110.75Zm-11.51,8.57c-1.44,1-2,1.19-1.94,1.51.09.49,1.48.22,3.22,1.17a4,4,0,0,1,2.06,2.09,3.35,3.35,0,0,1-.06,2c-1.18,3.48-8.54,6.07-9.52,6.4a15.85,15.85,0,0,1-5.44,1.59,13.62,13.62,0,0,1-3.42.48c-1.92,0-3.8,0-5.12-1.3a4.7,4.7,0,0,1-1.25-3,6,6,0,0,1,.83-2.86,10.42,10.42,0,0,1,1.23-2,30.78,30.78,0,0,1,4.5-4.82,32.17,32.17,0,0,1,2.72-2.08,40.77,40.77,0,0,1,4.23-2.5,36.8,36.8,0,0,1,4.59-2.27l.05,0c1.8-.68,4.44-1.67,6.51-.78a2.06,2.06,0,0,1,1.19,1,1.86,1.86,0,0,1,.09,1.11,9.43,9.43,0,0,1-.6.93A14.7,14.7,0,0,1,655.77,119.32Z"/><path class="cls-1" d="M253.55,145.7a34.53,34.53,0,0,0,6-.36A28.13,28.13,0,0,0,271.62,141a19.22,19.22,0,0,0,6.07-5.6c.83-1.3,1.61-2.38,3.18-4.56a10.23,10.23,0,0,1,2.26-2.33,4.35,4.35,0,0,1,1.8-1c1.78-.31,3.4,1.4,4.17,2.22.94,1,1.81,1.92,1.85,3.24s-.91,2.74-1.74,3.82c-.53.69-1,1.42-1.51,2.15-.06.08.05.28.09.42.23.19.44.09.64,0,5.84-3.49,12-6.31,18.14-9.24,4.57-2.19,11-1.52,14.66,2.9,1.66,2,2,3.88.66,6.15a18.66,18.66,0,0,1-8.08,7.25,21.72,21.72,0,0,1-5.87,2,6.62,6.62,0,0,1-6.94-3.16,1.35,1.35,0,0,1,.48-2.16c2.83-2,5.58-4,8.36-6,1-.74,2.07-1.49,1.83-3.12a30,30,0,0,0-9.09,3.47c-8.56,5.15-17.07,10.38-25.26,16.09a12.29,12.29,0,0,1-3.41,1.72,4.35,4.35,0,0,1-5.43-1.87,10,10,0,0,1-1.5-3c-.29-1-.81-1.12-1.78-.83-2.73.79-12.51,3-13.25,3.2a26,26,0,0,1-4.63.55c-3,.09-4.07-.39-4.6-.68a5.18,5.18,0,0,1-2.34-2.4,6,6,0,0,1-.21-3.3,15.15,15.15,0,0,1,1.68-5.2c-2.9,1.15-5.68,2.21-8.42,3.36-4.79,2-9.63,3.87-14.49,5.7-3.72,1.4-7.08.58-10.29-1.32A5.45,5.45,0,0,1,206.2,143a12.36,12.36,0,0,1,3.14-5c3.35-3.75,6.73-7.47,10.09-11.21,1-1.13,2-2.32,3.07-3.36,1.53-1.44,2.77-1.45,4.47-.18a9.19,9.19,0,0,1,2.25,2.11c1.55,2.27,1.62,3.31-.16,5.31-2.06,2.33-4.24,4.56-6.32,6.87-1.87,2.07-3.67,4.21-5.51,6.3-.51.58-.89,1.12-.38,1.91s1.21.49,1.89.26c5.67-1.92,11.49-3.46,16.71-6.51,4.28-2.5,8.41-5.24,12.52-8,2.32-1.56,4.68-3.06,7-4.56,3.48-2.2,7.14.25,8.32,3a3.46,3.46,0,0,1-.51,3.41,27.45,27.45,0,0,1-3.58,4.18c-4.5,4.5-6.18,5.51-6,7.12A2.63,2.63,0,0,0,253.55,145.7Z"/><path class="cls-1" d="M688.65,111.2c1.91-1,3.3-2.71,4.89-4.08,2.77-2.4,5.58-4.76,8.32-7.19,5-4.42,12.06-3.85,17-1a4.23,4.23,0,0,1,2.17,5.46c-2.07,6.41-6,11.23-12.49,13.56-3.33,1.19-5.88-.44-8.23-2.51-.78-.68.06-1.13.46-1.54,2.51-2.57,4.86-5.28,7.19-8,.21-.24.45-.46.65-.7s.59-.85.26-1.3-1-.39-1.52-.1a19,19,0,0,0-2.21,1.43,112.52,112.52,0,0,0-20.31,20.19c-1.47,1.89-3,3.76-4.39,5.68a8.87,8.87,0,0,1-2.32,2,5.49,5.49,0,0,1-6.1.16,5.4,5.4,0,0,1-2.79-5.19,9.33,9.33,0,0,1,.76-3.48q4.41-10.09,8.88-20.14a3.07,3.07,0,0,1,3.25-2A9.74,9.74,0,0,1,688,105c1.26,1.08,1,2.61.89,4C688.83,109.72,688.15,110.32,688.65,111.2Z"/><path class="cls-1" d="M591.85,106.84c.8,0,1.59,0,2.39,0,2.36.06,3.54,2.09,2.55,4.29a8,8,0,0,1-2.83,3.14,15.44,15.44,0,0,1-7.8,3.29c-2.74.22-4.48-1.67-3.94-4.29,1-4.93,1.56-6,7.73-6.42C590.57,106.8,591.21,106.84,591.85,106.84Z"/></g></g></svg>