<?xml version="1.0" encoding="utf-8"?>
<!-- Generator: Adobe Illustrator 25.0.0, SVG Export Plug-In . SVG Version: 6.00 Build 0)  -->
<svg version="1.1" id="Layer_1" xmlns="http://www.w3.org/2000/svg" xmlns:xlink="http://www.w3.org/1999/xlink" x="0px" y="0px"
	 viewBox="0 0 725 174" style="enable-background:new 0 0 725 174;" xml:space="preserve">
<style type="text/css">
	.st0{fill:#FFFFFF;}
	.st1{fill:#0C1526;}
</style>
<g id="Layer_2_xA0_Image_1_">
	<g>
		<path class="st0" d="M105.1-28.8"/>
	</g>
	<g>
		<path class="st1" d="M207.8,126.1c-1.2-1-2.5-1.1-3.1-1.2c-5.6-1.2-11.3-1.7-17.1-1c-7.9,0.9-14.8,3.8-20.7,9.1
			c-2.4,2.1-4.8,4.2-8.1,4.8c-2.7,0.5-5.4,0.7-8-0.1c-0.9-0.3-1.2-0.7-0.6-1.5c0.8-1.1,1.7-2.1,2.7-3c1.9-1.7,3.8-3.4,5.7-5.1
			c3.2-3,2.4-7,0.4-9.8c-0.7-1-1.6-1.5-2.4-1.5c-1.3-0.1-2.3,0.8-2.7,1.2c-4.1,3.6-17.9,12-22.7,14.4c-3.3,1.6-8.2,3.4-15.3,3.7
			c-2.3,0-4.8,0-7.6-0.2c-2.5-0.2-4.8-0.5-6.9-0.9c-5.1-0.7-9.3-1.8-12.4-2.7c-3.4-1-6.5-2.2-9.8-4.4c-2.7-1.8-3.6-3-4.1-3.9
			c-1.1-1.9-1.4-4.3-1-6.8c0.3-1.8,1-3.4,1.7-5c4.3-9.4,11.5-16.4,18.9-23.3c3.4-3.1,7-6,10.8-8.6c2-1.7,3.7-3,4.9-3.9
			c2.9-2.1,5.3-3.6,7.8-5.1c2.1-1.3,3.8-2.2,4.8-2.8c3.2-1.8,6.4-3.5,9.8-5c4.4-1.9,9.1-3.2,13.9-3.1c4.8,0,7.4,3.4,6.2,8
			c-1.1,4.2-2.9,8.1-5.7,11.5c-4.5,5.4-9.4,10.4-14.4,15.4c-2.2,2.2-4.5,4.4-6.6,6.6c-3.2,3.3-3.7,7.2-1.3,10.6
			c1.9,2.6,3.9,2.8,6,0.3c5.4-6.4,11.1-12.5,16.3-19.2c2.9-3.7,5.8-7.4,8-11.6c2.7-5.2,4.3-10.9,5.4-16.6c1.2-5.9-2.4-9.5-6.7-10.5
			c-1.7-0.4-4.6-1.3-11.7-0.2c-1.6,0.3-6,1-13.4,3.7c-3.1,1.1-7.2,2.7-12.1,5c-2.3,1.1-5,2.4-7.9,4.1c-0.6,0.4-3.9,2.2-7.4,4.4
			c-5.6,3.6-10.7,7.8-15.7,12.1c0,0-9.4,8.6-16.6,19.6c-0.7,1-2.5,3.9-4.1,8c-0.9,2.6-1.8,4.9-1.6,8.1c0,1,0.2,3.6,1.7,6.3
			c2.1,4,5.7,5.7,9.3,7.5c2.9,1.4,6.4,2.3,13.3,4c5.3,1.3,8.2,2,12.4,2.6c1.1,0.2,5.3,0.7,11.1,1c4.5,0.2,10.4,0.1,17.3-0.6
			c-3.8,1.9-9.6,4.3-16.8,5.6c-12.6,2.3-22.6,0.1-29.8-1.6c-17.8-4.2-34.5-13.3-40.5-16.7c-0.4-0.2-4.2-2.3-9.5-4.4
			c-7.5-3-11.4-3.3-12.9-3.4c-5.2-0.3-8.5,0.8-9.2,1.1c-1.5,0.5-4,1.5-6.1,4c-0.9,1-1.4,2-1.8,2.7c4.7,6.7,14.5,18.8,31.1,28
			c5.1,2.8,19.4,10.1,38.7,11.3c1.2,0.1,2.4,0.2,4.1,0.2c23.9,0.2,41.6-12.2,54.5-11c3.3,0.3,4.5,0.5,4.5,0.5
			c10.1,1.8,12,2.2,12,2.2c2,0.3,2.4-0.1,2-2.2c-0.6-2.6-2.1-4.4-4.7-5.3c-1.9-0.6-3.9-0.6-5.9-1c-1.3-0.3-2.8-0.3-4.1-1.3
			c2.8-2.2,5.3-3.3,7.1-3.8c1-0.3,3-0.6,6.9-1.3c1.4-0.2,3.1-0.5,6.2-0.9c5.8-0.8,7.2-1,8.1-0.1c0.8,0.8,0.3,1.6,1.4,3.1
			c0.8,1,1.8,1.6,3,2.2c5.8,2.5,11.8,4,18.2,3.6c5.8-0.3,11.1-2,16-5.1c2.4-1.5,4.2-3.5,4.5-6.5c0.2-1.6,0.8-2.8,1.8-4.1
			c1.7-2.1,2.5-3.2,2.8-4.4C210.4,129.7,209.3,127.3,207.8,126.1z M21.3,134.5c0,0,0.3-0.4,2.6-0.8l0,0l0,0c0,0,6.5-0.7,11.7-0.2
			c2.6,0.2,6.2,0.9,10.5,2.7c2.3,1.3,5.5,2.9,9.3,4.6c5.2,2.4,11.9,5.1,18.6,7c14.2,3.9,27.2,4.1,27.2,4.1c6.2,0.1,13.8-0.5,14.1,1
			c0.1,0.7-1.1,1.6-3.3,2.5c-17.8,7.7-35.7,6.6-35.7,6.6c-3.6-0.2-10.3-0.8-18.4-3c-2.7-0.7-5-1.4-7.3-2.3c0,0-5.5-2-10.2-4.5
			C28.5,146,20.4,135.7,21.3,134.5z M203.2,131.9c-0.4,0.9-1.4,1.3-2,1.5c-2.7,1-5.8,1.9-6.8,2.2c1.1,0.5,2,0.9,2.6,1.3
			c0.5,0.3,2.3,1.2,3,2.5c0.1,0.1,0.1,0.3,0.2,0.5c0.1,0.7-0.4,1.2-0.8,1.6c-1.5,1.5-3.4,2.5-3.4,2.5c-1.6,0.8-2.4,1.2-3.9,1.7
			c-2,0.7-4.3,1.5-7.2,1.7c-2,0.1-6,0.4-9.9-1.9c-1.2-0.7-3.5-2.1-3.6-4.1c-0.1-1.1,0.5-1.9,1.2-2.9c0.6-0.8,1.8-2.3,6.3-4.9
			c2-1.1,3.6-1.9,4.6-2.3c2.2-1,4-1.8,6.4-2.3c1.5-0.3,2.6-0.4,4.7-0.6c3.4-0.3,4.6-0.1,5.5,0.2c0.9,0.3,2.5,0.8,2.9,2
			C203.5,131.2,203.2,131.8,203.2,131.9z"/>
		<path class="st1" d="M571.6,131.5c-0.6-3.4-2.2-6.3-6.6-6.1c-0.6,0-1.3,0-1.9,0.1c-3.5,0.4-7,0.9-10.4,1.3
			c-6,0.6-11.9,1.1-17.9,1.6c-0.5,0-1,0.1-1.3,0.5c1.1,3,1.3,3.1,4.2,3.2c2.3,0,4.6,0,7,0h4.9c-5.8,3.2-11.2,6.7-16.6,10.1
			c-3.5,2.2-7.1,4.3-10.9,5.9c-2.7,1.1-5.3,2.3-8.5,2.6c0.3-0.9,0.5-1.6,0.8-2.2c0.8-1.5,1.6-2.9,2.4-4.4c0.9-1.6,2-3,2.7-4.8
			c0.6-1.7,0.3-3.2-1-4.3c-4.3-4-10.8-5.1-15.8-2.5c-3.1,1.6-6.1,3.5-9,5.5c-3,2-5.6,4.4-8.8,6.7c0.4-1.4,0.9-2.2,1.4-3.1
			c1.6-2.9,1.3-4.7-1.4-6.6c-0.6-0.4-1.2-0.8-1.8-1.2c-1-0.6-2-0.8-2.9-0.5c-0.7,0.2-1.1,0.6-2,1.5c-0.8,0.8-1.2,1.5-2,2.6
			c-1.1,1.6-1.6,2.4-1.8,2.8c-1.8,3-3.7,6.1-5.9,8.5c0,0-3.3,3.2-13.9,6.4c-1.3,0.4-1.9-0.3-2-1.6c-0.1-1.1,0.3-2,0.8-2.9
			c0.9-1.4,1.7-2.9,2.6-4.3c1.9-3.1,1.1-6.5-1.4-8.9c-1.8-1.7-3.1-2.1-5.1-0.8c-1.2,0.8-2.2,0.7-3.4,0.2c-2.8-1.4-5.8-1.7-8.9-1.5
			c-2.1,0.1-4.1,0.2-6.2,0.5c-8.5,1.1-16,4.4-22.2,10.4c-4.4,4.2-9.3,7.2-15,9.1c-2,0.6-3.9,1.3-6,1.6c-1.8,0.3-2.1-0.6-2.1-0.7
			c-0.3-0.6,0.5-1.5,1.4-2.6c0,0,2.7-3.6,5.2-7.2c1.9-2.8,1.7-4.2-0.6-6.5c-4-3.9-9.9-4.8-14.8-2c-2.5,1.4-4.9,3-7.3,4.5
			c-2,1.3-1.9,1.3-3.2-0.6c-0.5-0.8-1-1.6-1.7-2.3c-2.8-2.9-6.2-4.8-11-3c-1.6,0.6-3.2,1.4-4.8,2.1c-2.3,1.1-4.5,2.3-6.9,3.5
			c-0.3-1.6-1.3-2.5-2.2-3.5c-3.1-3.7-5.3-3.6-8.3,0.2c-3.7,4.8-7.4,9.6-11.1,14.5c-1,1.3-1.8,2.6-2.1,4.3c-0.4,2.1,0.1,4,1.9,5.3
			c1.9,1.4,3.9,1.8,6,0.3c0.6-0.5,1.3-0.9,1.9-1.4c5.3-4.9,10.8-9.5,16.3-14.2c2.9-2.5,6.1-4.7,9.6-6.1c0.4-0.2,0.8-0.5,1.2-0.3
			c0,0,0.4,0.1,0.5,0.4c0.2,0.5-0.3,1.2-0.5,1.4c-3,4-5.6,8.1-8.3,12.3c-0.6,0.9-1.1,1.8-1.5,2.7c-1,2.6-0.1,5,2.3,6.3
			c2,1.1,3.9,1.2,5.8-0.3c0.6-0.5,1.3-1,1.8-1.5c2.2-2.2,7.5-7.2,9.9-9.4c2.2-2,3.9-3.6,6.5-5.5c0,0,2.7-1.9,6.5-3.8
			c1.3-0.6,2.5-1.1,4-1.5l0,0l0,0c0,0,0.6,0.1,0.7,0.2c0.4,0.4-2.1,3.5-3.2,4.8c-1.5,1.8-0.6,0.9-3.4,4.4c-0.8,1-3.2,4-4,6.7
			c0,0.1-0.1,0.3-0.1,0.6c-0.4,2-0.3,3.9,1.5,5.2c1.6,1.2,3.6,1.8,5.7,1.5c5.2-0.6,10.1-2.2,14.9-4.2c2.5-1.1,5.1-2.2,7.7-3.2
			c0.8,1.2,1.4,2.3,2.2,3.3c1.4,1.9,3.2,3.3,5.7,3.6c1.9,0.2,3.7-0.1,5.4-0.6c7.3-2,14.5-4.6,21.1-8.3c0.5-0.3,1-0.8,1.8-0.6
			c0.1,1.2,0.1,2.3,0.2,3.5c0.3,3.9,2.5,5.9,6.5,5.7c0.5,0,1,0,1.4-0.1c2.8-0.5,5.6-1.2,8.3-2.3c2.9-1.1,5.8-2.4,8.6-3.7
			c0.9-0.5,1.7-0.6,2.3,0.6c0.6,1.2,1.5,2.3,2.6,3.1c2.3,1.7,4.3,1.7,6.6,0c0.4-0.3,0.7-0.6,1.1-0.9c5.8-5.3,11.5-10.5,17.4-15.8
			c4-3.6,8.6-6.3,14.1-7.8c0,1-0.3,1.7-0.6,2.3c-1,1.9-2.1,3.8-3.1,5.7c-1.7,3-3.4,6-4.1,9.4c-0.5,2.9,1.2,5.5,4,6.1
			c1.7,0.4,3.5,0.2,5.2-0.2c3.2-0.7,6.3-1.9,9.3-3.2c2-0.8,3.7-0.8,5.2,1c0.9,1.1,2.1,1.3,3.5,1.2c1.7-0.2,3.5-0.5,5.2-0.7
			c8.5-0.8,16.9-2,25.4-3c2.6-0.3,5-1,6.6-3.3c0,0,0.1-0.1,0.1-0.2c0.1-0.4,0.1-0.8,0-1.2c-0.3-0.4-0.4-0.9-1.1-0.8
			c-0.6,0.1-1.3,0.1-1.9,0.2c-5.6,0.9-11.2,1.8-16.8,2.6c-3,0.5-6,0.9-9,1.3c-0.4,0.1-0.8,0.2-1-0.3s0.3-0.7,0.6-0.9
			c0.9-0.6,1.8-1.3,2.8-1.9c7.7-4,15.4-8,23.2-12.1c3-1.6,6.1-3.2,9.1-4.8C571.1,134.1,571.9,133,571.6,131.5z M441.7,144.7
			c-0.4,1.2-1.5,2.1-3.7,3.8c-1.5,1.2-2.8,2-3.9,2.7c-0.6,0.3-1.7,1-3.2,1.8c-2.4,1.3-4.3,1.9-6.8,2.8c-4,1.4-5.4,1.7-6.9,1.6
			c-1.2,0-2.5-0.1-3.1-0.9c-1.1-1.7,1.7-5.2,2.7-6.5c4-5,8.8-7.2,14.5-9.8c0.4-0.2,1.7-0.7,3.4-1c2-0.3,4.3-0.7,5.9,0.8
			C441.8,141.2,442.1,143.2,441.7,144.7z"/>
		<path class="st1" d="M508.5,71.3c-0.8,0.1-1.5,0.6-2.1,1c-2.8,1.5-5.6,3.1-8.5,4.5s-6,2.6-9.5,2.5c0.5-2.1,1.1-3.9,2.3-5.6
			c1.1-1.7,2.3-3.5,2.7-5.6c0.6-2.8-1.1-6.9-5.2-6.6c-1.9,0.1-3.6-0.3-5.4-0.8c-5.7-1.7-11.4-1.6-17-0.1c-5.6,1.4-10.5,4.3-14.9,8
			c-9.5,7.8-20.3,12.3-32.5,13.5c-2.7,0.3-5.4-0.3-8-1.3c0.9-0.6,1.8-0.9,2.9-1c4.5-0.5,9-1.4,13.3-2.8c4.2-1.3,8-3.2,10.9-6.6
			c3.6-4.1,2.4-9.7-2.6-11.1c-0.7-0.2-1.4-0.2-2.1-0.3c-2.5-0.2-5.1-0.2-7.6,0c-6.4,0.5-12.1,2.5-17.1,6.6c-3.4,2.7-4.3,3.8-6.9,6
			c-8.6,7.3-15.8,6.9-16.3,6.6c-0.3-0.2-0.5-0.4-0.5-0.4s-0.2-0.3-0.2-0.6c0-0.9,2.6-3.9,3.7-5.3c0.7-0.9,1.4-2,2.1-3.5
			c1.7-3.4,0.9-6.5-2.3-8.5c-3.2-1.9-6.6-2.3-10-0.4c-2.2,1.3-4.4,2.6-6.5,4c-2.4,1.5-2.3,1.5-4-0.8c-3.9-5.3-9.2-6.4-14.9-2.7
			c-1.7,1.1-3.4,2.5-5,3.7c-0.4,0.3-0.7,0.9-1.5,0.6c0-0.9-0.2-1.8-0.5-2.7c-1.2-3.2-4.8-4-7.2-1.6c-0.7,0.7-1.3,1.4-1.9,2.2
			c-1.4,1.9-3,3.8-4.1,5.9c-2.7,4.8-7,7-12.1,8.3c-1.7,0.4-3.5,0.5-5.5,0c1.1-2.5,2.5-4.5,4-6.5c1.1-1.5,2.3-3.1,3.3-4.7
			c1.3-2,1-3.7-0.6-5.4c-0.5-0.6-1.2-1.1-1.8-1.6c-1.5-1.1-2.2-1.1-3.6,0.1c-5.6,4.9-11.5,9.4-17.4,13.9c-4.2,3.3-8.8,5.8-13.7,7.9
			c-0.5,0.2-1,0.5-1.5,0s-0.2-1,0-1.5c0.7-1.6,1.7-3.1,2.7-4.5c2-2.9,4.1-5.7,6-8.7c1.9-2.9,1.5-4.9-1.2-7.1
			c-2.1-1.8-3.9-1.5-5.4,0.7c-3.3,4.8-6.5,9.7-9.8,14.5c-0.9,1.3-1.6,2.7-2,4.3c-0.4,1.6-0.2,3.2,0.8,4.6s2.3,2.4,3.9,3
			c2.5,1,4.9,0.2,7.2-0.7c6.2-2.4,12-5.7,17.3-9.6c0.5-0.3,0.9-0.8,1.6-0.8c-0.5,1.4-1,2.5-1.4,3.8c-1.1,3.7,0.8,6.6,4.6,7
			c1.4,0.1,2.7,0.1,4-0.2c3.4-0.8,6.6-1.8,9.8-3.1c1.1-0.5,2.3-1.3,3.4-1c1,0.2,1.2,1.6,1.9,2.4c0.1,0.1,0.2,0.2,0.3,0.4
			c2,2.5,3.6,2.6,6.1,0.6c0.3-0.2,0.5-0.4,0.7-0.7c5.2-5.2,10.6-10.2,16-15.2c2.1-2,4.2-3.9,7-5c0.4-0.2,0.9-0.5,1.3,0
			s0,0.9-0.2,1.3c-1.2,1.8-2.4,3.6-3.5,5.4c-1.7,2.8-3.5,5.6-4.8,8.6c-1.1,2.5-0.4,4.9,1.8,6.3c2.4,1.6,3.5,1.4,5.9-0.9
			c0.9-0.9,1.8-1.8,2.7-2.7c4.8-4.8,9.6-9.6,14.6-14.2c1.6-1.5,3.5-2.4,5.5-3.4c0.5-0.3,1.1-0.5,1.5,0c0.4,0.4-0.1,0.9-0.3,1.3
			c-1.1,1.7-2.2,3.4-3.2,5.1c-1.7,2.9-3.7,5.6-4.9,8.8c-1.6,4.3,0.7,7.6,5.2,7.6c0.7,0,1.4-0.1,2.1-0.2c4-0.7,7.8-2.3,11.6-3.8
			c2.3-0.9,4.4-2.2,6.7-2.9c1.3,4.4,4.1,6.8,8.5,7.5c5.9,1,11.6,0.3,17.3-0.9c5.9-1.2,11.5-3.5,17.1-5.5c2.8-1,2.9-1,3.9,1.8
			c1,2.7,2.9,4.1,5.7,4.4c1.8,0.2,3.5,0,5.3-0.2c4.2-0.5,7.4-2.4,10.3-3.7c2-0.9,5-2.2,8.8-3.8c0.1,0,0.2,0.1,0.4,0.2
			c1,0.8-0.3,3,0.6,5.5c0.4,1,0.9,1.6,1,1.8c0.6,0.6,1.3,1,2.3,1.4c1.7,0.6,3.3,0.1,4.9-0.3c4.6-1.2,8.9-3.2,13.1-5.2
			c2.7-1.3,5.3-2.6,7.9-4C508.8,76.7,509.7,74.3,508.5,71.3z M413.5,70.4c3.6-3.6,7.4-5.1,8.8-5.7c0.8-0.3,1.5-0.5,2-0.6
			c3.2-0.7,5.5-0.6,6.9-0.4c0.7,0.1,1.5,0.3,2,0.9c0.8,1,0.1,2.6,0,3c-0.3,0.8-1.2,2.6-6.2,5c-1.8,0.9-5.3,2.4-10.4,3.2
			c-3.2,0.5-5.8,0.9-6.3-0.1C409.5,74.4,411.9,71.9,413.5,70.4z M480.3,68c-0.5,7.5-15.2,11.5-20.7,12c-2.9,0.3-3.7-0.4-4-0.9
			c-0.5-0.9,0.1-2.3,0.4-2.8c0.4-0.8,1.1-1.9,2.1-3.2c1.3-1.7,4.9-6.2,11-8.3c1-0.3,8.2-2.8,10.5,0.2
			C480.4,66.2,480.3,67.4,480.3,68z"/>
		<path class="st1" d="M308.5,91.3c-4.6-0.3-9.3-0.2-13.9-0.4c-8.9-0.2-17.9-0.4-26.8-0.6c-7.4-0.2-14.9-0.3-22.3-0.5
			c-0.9,0-1.8-0.1-2.6-0.1c-0.9,0-1.3-0.3-1-1.3c0.5-1.5,1-3,1.5-4.5c1.3-4.3,5.5-17.1,16.3-36.4c0.9-1.6,2.6-4.4,6.1-10
			c0,0,12.9-20.7,22.5-25.5c0.4-0.2,1.9-0.9,3.4-0.5c0.4,0.1,1.3,0.3,1.6,1c0.2,0.4,0.2,0.8,0.4,1.5c0,0.3,0.1,0.5,0.1,0.8
			c0.2,3.3-0.9,6.3-2.3,9.2c-3.6,7.2-7.2,14.5-10.8,21.7c-0.9,1.8-1.3,3.6-1.4,5.5c0,1,0.4,1.2,1.3,1.1c3.1-0.4,5.5-2,7.6-4.3
			c3.9-4.2,5.9-8.5,7.8-12.6s2.6-6.9,2.9-7.8c0.4-1.6,1.1-4.3,1.4-7.7c0.3-2.8,0.4-4.1,0.1-5.8c-0.1-0.7-0.9-5.3-3.9-7.7
			c-5.2-4-14.5,0.9-16.4,1.9c-3.1,1.6-6.3,4-14,13.7c-4.3,5.5-7.9,10-12.2,17c-8.7,14.1-11.4,21.5-14.1,29.3
			c-2,5.8-3.5,11.6-4.6,17.6c-0.5,2.5-1.9,3.7-4.3,4.2c-1.4,0.3-2.8,0.4-4.3,0.6c-4.1,0.5-8.2,1.4-12.1,2.8c-2.8,1-5.4,3.3-4.9,7.1
			c0.4,2.7,2,4.7,4.2,6.1c4.6,3,9.5,3.5,14.7,1.9c3.3-1,6-2.8,7.7-6c1.9-3.4,5-5,9-4.8c1.7,0.1,3.3,0.4,5,0.4
			c3.8,0.1,7.6,0.2,11.5,0.4c5.6,0.4,11.1,0.7,16.7,1c6.5,0.3,13,0.8,19.6,1.1c1.6,0.1,3.2,0.1,4.8,0.3c3.9,0.5,7.2-1.6,8.6-5
			C312.9,93,311.9,91.5,308.5,91.3z M231.9,98.4c0.3,0.6-0.6,1.6-1.7,2.7c-1.3,1.4-2,2.2-3.4,3c-0.9,0.5-3.1,1.7-5.7,1.3
			c-0.7-0.1-2.1-0.4-3.1-1.5c-0.3-0.3-1-1.2-0.9-2.4c0.1-1.5,1.7-2.4,2.2-2.7c1-0.6,1.9-0.6,3.8-0.8c1.3-0.1,2.4,0,3.1,0
			c0.8,0,1.8,0,3.1,0C231.3,98,231.7,98.1,231.9,98.4z"/>
		<path class="st1" d="M669.1,115.8c-0.2-0.4-0.8-1.5-2-2.5c-0.6-0.5-1.5-1-3-1.4c-3.9-1-8.8,0.2-10.1,0.5c-2.5,0.6-6,1.6-9.9,3.5
			c-1.3,0.7-2.6,1.5-4,2.3s-2.7,1.5-3.9,2.7c-0.3,0.2-0.8,0.6-1.5,1c-3.4,2.5-5.3,5-6.2,6.1c0,0-5.8,7.3-15.8,12
			c-0.6,0.3-1.4,0.8-2,0.3c-0.6-0.6,0-1.4,0.3-2c4.8-11.5,9.7-22.9,16.4-33.5c1.5-2.3,3.5-4.4,4.2-7.1c0.8-1.8,0.4-3.4-0.5-4.8
			c-1.6-2.3-3.8-3.7-5.6-3.2c-0.9,0.2-1.8,0.9-2.2,1.3c-0.9,0.8-1.6,1.8-2.2,2.8c-4.1,7.6-8.1,15.2-12.1,22.9
			c-2.3,4.5-4.5,9-6.8,13.5c-1.5,2.8-2.7,5.9-5.5,7.7c-3.7,2.4-7.6,4.5-11.7,6.1c-1.1,0.5-2.3,0.8-3.9,0.5c1.2-2.3,2.3-4.5,3.4-6.5
			c1.2-2.1,2.5-4.1,3.6-6.2c1.5-2.8,1-4.6-1.8-6.2c-0.8-0.4-1.5-0.8-2.3-1.2c-2.4-1.1-3.4-0.8-4.8,1.4c-1.1,1.9-2.3,3.9-3.3,5.8
			c-2.8,5.2-5.6,10.4-7.8,15.9c-1.6,4,1.1,7.7,5.3,7.2c2.4-0.3,4.9-0.7,7.3-1.5c4.6-1.5,8.7-4,12.9-6.3c3.8-2.1,2.9-2.3,5.6,1
			c2.3,2.8,5.3,3.7,8.8,2.6c1.5-0.5,3-1.1,4.4-1.8c3.6-1.7,6.8-4,10.1-6c1.9-1.2,2-1.3,3.8,0.2c1.6,1.3,3.3,2.2,6.8,3.3
			c2.9,1,5.4,0.8,8.1,0.6c1.9-0.2,14.6-1.5,21.5-9.7c2.7-3.1,4.3-7,4.3-7c0.1-0.3,0.7-1.7,1.3-3.7
			C669.6,122.4,670.7,118.9,669.1,115.8z M657.6,124.4c-1.4,1-2,1.2-1.9,1.5c0.1,0.5,1.5,0.2,3.2,1.2c0.6,0.3,1.7,0.9,2.1,2.1
			c0,0,0.3,0.9-0.1,2c-1.2,3.5-8.5,6.1-9.5,6.4c-1.7,0.8-3.5,1.4-5.4,1.6c-0.8,0.2-2,0.5-3.4,0.5c-1.9,0-3.8,0-5.1-1.3
			c-1.2-1.2-1.2-2.8-1.3-3c0-1.1,0.4-1.9,0.8-2.9c0.4-0.9,0.9-1.5,1.2-2c1.6-2.2,3.3-3.8,4.5-4.8c0.3-0.2,1.3-1.1,2.7-2.1
			s2.5-1.6,4.2-2.5c2.2-1.2,3.2-1.8,4.6-2.3l0,0c1.8-0.7,4.4-1.7,6.5-0.8c0.9,0.4,1.1,0.9,1.2,1c0.2,0.4,0.1,0.9,0.1,1.1
			c-0.1,0.2-0.3,0.5-0.6,0.9C661,121.6,660.2,122.7,657.6,124.4z"/>
		<path class="st1" d="M255.4,150.7c1.4,0,3.5,0,6-0.4c2.6-0.4,7.3-1.1,12.1-4.3c2.1-1.4,4.3-2.9,6.1-5.6c0.8-1.3,1.6-2.4,3.2-4.6
			c0.3-0.4,1-1.4,2.3-2.3c0.8-0.6,1.2-0.9,1.8-1c1.8-0.3,3.4,1.4,4.2,2.2c0.9,1,1.8,1.9,1.9,3.2c0,1.3-0.9,2.7-1.7,3.8
			c-0.5,0.7-1,1.4-1.5,2.2c-0.1,0.1,0,0.3,0.1,0.4c0.2,0.2,0.4,0.1,0.6,0c5.8-3.5,12-6.3,18.1-9.2c4.6-2.2,11-1.5,14.7,2.9
			c1.7,2,2,3.9,0.7,6.2c-1.9,3.3-4.7,5.5-8.1,7.3c-1.9,1-3.8,1.6-5.9,2c-2.8,0.5-5.5-0.8-6.9-3.2c-0.6-1-0.5-1.5,0.5-2.2
			c2.8-2,5.6-4,8.4-6c1-0.7,2.1-1.5,1.8-3.1c-3.2,0.7-6.3,1.8-9.1,3.5c-8.6,5.2-17.1,10.4-25.3,16.1c-1.1,0.7-2.2,1.3-3.4,1.7
			c-2.3,0.7-4,0.1-5.4-1.9c-0.6-0.9-1.2-1.9-1.5-3c-0.3-1-0.8-1.1-1.8-0.8c-2.7,0.8-12.5,3-13.3,3.2c-0.6,0.1-2.3,0.5-4.6,0.5
			c-3,0.1-4.1-0.4-4.6-0.7c-0.5-0.3-1.7-1-2.3-2.4c-0.1-0.3-0.5-1.2-0.2-3.3c0.1-1.2,0.5-3,1.7-5.2c-2.9,1.2-5.7,2.2-8.4,3.4
			c-4.8,2-9.6,3.9-14.5,5.7c-3.7,1.4-7.1,0.6-10.3-1.3c-2.3-1.4-3.1-3.8-2.4-6.4c0.5-2,1.8-3.5,3.1-5c3.4-3.8,6.7-7.5,10.1-11.2
			c1-1.1,2-2.3,3.1-3.4c1.5-1.4,2.8-1.5,4.5-0.2c0.8,0.6,1.6,1.2,2.3,2.1c1.6,2.3,1.6,3.3-0.2,5.3c-2.1,2.3-4.2,4.6-6.3,6.9
			c-1.9,2.1-3.7,4.2-5.5,6.3c-0.5,0.6-0.9,1.1-0.4,1.9c0.6,0.8,1.2,0.5,1.9,0.3c5.7-1.9,11.5-3.5,16.7-6.5c4.3-2.5,8.4-5.2,12.5-8
			c2.3-1.6,4.7-3.1,7-4.6c3.5-2.2,7.1,0.3,8.3,3c0.5,1.2,0.2,2.3-0.5,3.4c-1,1.5-2.3,2.9-3.6,4.2c-4.5,4.5-6.2,5.5-6,7.1
			C255.1,150.1,255.3,150.5,255.4,150.7z"/>
		<path class="st1" d="M690.5,116.2c1.9-1,3.3-2.7,4.9-4.1c2.8-2.4,5.6-4.8,8.3-7.2c5-4.4,12.1-3.8,17-1c2.2,1.3,2.9,3.1,2.2,5.5
			c-2.1,6.4-6,11.2-12.5,13.6c-3.3,1.2-5.9-0.4-8.2-2.5c-0.8-0.7,0.1-1.1,0.5-1.5c2.5-2.6,4.9-5.3,7.2-8c0.2-0.2,0.5-0.5,0.7-0.7
			c0.3-0.4,0.6-0.8,0.3-1.3c-0.4-0.5-1-0.4-1.5-0.1c-0.8,0.4-1.5,0.9-2.2,1.4c-7.6,5.9-14.4,12.6-20.3,20.2c-1.5,1.9-3,3.8-4.4,5.7
			c-0.6,0.8-1.5,1.5-2.3,2c-2,1.3-4,1.3-6.1,0.2c-2-1.2-2.9-2.9-2.8-5.2c0-1.2,0.3-2.4,0.8-3.5c2.9-6.7,5.9-13.4,8.9-20.1
			c0.6-1.4,1.7-2,3.3-2c2.3,0.1,4.2,1.1,5.8,2.5c1.3,1.1,1,2.6,0.9,4C690.7,114.8,690,115.4,690.5,116.2z"/>
		<path class="st1" d="M593.7,111.9c0.8,0,1.6,0,2.4,0c2.4,0.1,3.5,2.1,2.5,4.3c-0.6,1.4-1.7,2.3-2.8,3.1c-2.3,1.7-4.8,3-7.8,3.3
			c-2.7,0.2-4.5-1.7-3.9-4.3c1-4.9,1.6-6,7.7-6.4C592.4,111.8,593.1,111.9,593.7,111.9z"/>
		<path class="st1" d="M49.9,147.7"/>
		<path class="st1" d="M103.2,169.4"/>
		<path class="st1" d="M15.6,138.3"/>
		<path class="st1" d="M110.3,140.5"/>
		<path class="st1" d="M425.7,155.2"/>
		<path class="st1" d="M454.5,77.9"/>
		<path class="st1" d="M44.1,134.8"/>
	</g>
</g>
</svg>
