<svg xmlns="http://www.w3.org/2000/svg" viewBox="0 0 212.29 284.26"><defs><style>.cls-1{fill:#0c1526;}.cls-2{fill:#fefefe;}.cls-3{fill:#0b1425;}</style></defs><g id="Layer_2" data-name="Layer 2"><g id="Layer_1-2" data-name="Layer 1"><path class="cls-1" d="M49.26,162.28c.2-4.7.4-9.4.5-14a10.88,10.88,0,0,0-.3-3.1,6.27,6.27,0,0,0-5.6-4.9c-4.7-.5-8.8-2.5-12.8-4.8a60,60,0,0,1-23-22.8c-2.9-5-4.6-10.6-6.1-16.2a53,53,0,0,1-1.8-18.2c.2-2.9-.2-5.9.3-8.9,2.1-11.9,7.5-21.5,17.9-28.1,4.2-2.7,8.5-4.4,13.5-3.9a70.29,70.29,0,0,1,9.1,2c5.5,1.3,10.8,3,16.4,3.8,7.2,1,14.4,1.3,21.4-1.5a48,48,0,0,0,8.8-5.1c9.4-6.5,18.7-13.1,28.2-19.5,7.2-4.9,14.6-9.6,22.8-12.9,6.9-2.8,14-4.6,21.5-4.1,15.3.9,28.4,6.8,38.9,18.2a87.59,87.59,0,0,1,7.6,9.7c2.8,4.1,4,8.8,4.7,13.7a81.86,81.86,0,0,1-1.9,34.8,83.33,83.33,0,0,1-17.6,31.7,58,58,0,0,1-9.9,9.9,26.18,26.18,0,0,1-14.7,5.4c-5,.3-7.9,2.9-8.4,7.8a209.57,209.57,0,0,0-.6,30.7c.3,6.2.5,12.5,1,18.7v.2c-.1.5-1,.7-1.3.8-1.8.5-16.6-6.8-23.3-8.4a182.1,182.1,0,0,0-20.5-3.3c-3.8-.4-7.7-1.3-11.6-1a97,97,0,0,0-31.3,7.6c-4.2,1.8-8.3,4.2-12.7,5.5a40.5,40.5,0,0,1-5,1.2c-1.9.3-2.8-.2-3.8-2a10.39,10.39,0,0,1-1.1-5.2c.3-4.4.4-9.1.7-13.8Z"/><path class="cls-2" d="M29.16,107.08a8.41,8.41,0,0,0,.4,3.9c2.5,7,7.1,11.6,14.8,12.7,3.6.5,4.9,1.9,5,5.5,0,1.7.5,3.5,0,5.2-.4,1.5-.7,1.8-2.3,1.7a5.85,5.85,0,0,1-1.3-.2c-10-3.6-19-8.7-26.2-16.7-6.9-7.8-10.9-17-12.8-27.2a69.7,69.7,0,0,1-1.2-17.1c.7-9.4,3.6-18,10.6-24.7a23.22,23.22,0,0,1,14.2-6.8,22.5,22.5,0,0,1,6.8.7c7.3,1.8,14.5,3.8,21.8,5.4,10.1,2.2,19.6.2,28.3-5.4,9.4-6.1,18.4-12.6,27.5-19,6.5-4.5,12.9-9.1,20-12.8a52.3,52.3,0,0,1,29-6,44.88,44.88,0,0,1,22.8,8.6c8,5.8,14.3,12.9,17.6,22.3a53.18,53.18,0,0,1,2.6,21.7,77.75,77.75,0,0,1-6.1,26,76.26,76.26,0,0,1-21.6,28.7,20.63,20.63,0,0,1-14.2,5.2c-1.8-.1-3.6-.3-4.7-2.1a2.33,2.33,0,0,1,.1-3.2c.8-1,1.8-2,2.6-3a3.83,3.83,0,0,0,1-2.9c0-.3.1-.7-.3-.8s-.6.1-.9.3a11.38,11.38,0,0,1-2.5,1.8c-2.3,1.1-4.4,1-6.1-.8-5.6-6.2-12.8-8.8-20.8-9.9a46.32,46.32,0,0,0-7.4-.7c-1.5,0-2.1-.8-1.8-2.2.1-.4.3-.8.4-1.2.2-.6.4-1.3-.4-1.6s-1,.4-1.3.8a11.22,11.22,0,0,1-8.3,5.1c-2.1.3-4.2.7-6.3,1.1-4.3.8-8.5,1.7-12.8,2.6a11.4,11.4,0,0,1-2.6.2c-.9,0-1.2-.4-1.1-1.3.1-.6.6-1.3-.3-1.7a2.26,2.26,0,0,0-2.6.2,12.67,12.67,0,0,0-1.3,1.1,31.64,31.64,0,0,1-17.6,7.2c-3.7.3-7.2-1-10.8-2.1-1.1-.3-2.3-.7-3.4-1.1a.92.92,0,0,0-1,.1c-.3.3-.1.7,0,1a10.28,10.28,0,0,0,2.1,2.9c.8.8,1.6,1.6,2.4,2.5s.6,1.5-.3,1.8c-4.3,1.6-8.4,3.8-13.1,4.5-6.8,1-11.8-2.1-15.2-7.8C30.46,108.58,30.56,107.38,29.16,107.08Z"/><path class="cls-2" d="M125.26,105.08a36.85,36.85,0,0,1,18.9,4.3,25.93,25.93,0,0,1,8.3,7.5,12.51,12.51,0,0,1,2.1,8.4c-.8,10.9-1.8,21.8-1.2,32.7l.6,9.3a28.1,28.1,0,0,1,.1,2.9c.1,3-.6,3.5-3.5,2.7-6.3-1.8-12.4-4-18.8-5.5a126,126,0,0,0-30-2.7,84.61,84.61,0,0,0-23.5,3.5,67.48,67.48,0,0,0-13.8,5.9A41.66,41.66,0,0,1,58,177a.75.75,0,0,1-.5.1c-2.5.7-3.2.3-3.7-2.2-.5-2.1.1-4,.3-6.1.4-4.6.8-9.2,1.1-13.7s1.2-8.9,1.8-13.3a50.76,50.76,0,0,0-.1-16.5c-.5-2.4-.1-3.1,2.3-4,7.9-2.9,15.8-5.6,23.8-7.9a254.76,254.76,0,0,1,29.9-7.1C116.66,105.78,120.66,105.28,125.26,105.08Z"/><path class="cls-3" d="M69,61.68a32.61,32.61,0,0,1-19-5.2,1.17,1.17,0,0,1-.7-1.4c.3-.8.9-.6,1.5-.5a47.35,47.35,0,0,0,17.2.5,51.63,51.63,0,0,0,22.3-9.5,60.27,60.27,0,0,1,8-5.1,22.26,22.26,0,0,1,20.4.2,1.71,1.71,0,0,1,1.1,2c-.3,1.1-1.1,1.1-1.9,1a27,27,0,0,0-10.6.5c-4.6,1.2-8.2,4-11.8,6.8-1.5,1.2-3.1,2.4-4.7,3.6A36.36,36.36,0,0,1,69,61.68Z"/><path class="cls-1" d="M93.16,214.58a16.8,16.8,0,0,1,6.8,4c1,.9,2.1,1.6,3.1,2.4a2.41,2.41,0,0,0,3,.1c1.5-1,3-2,4.4-3,5.5-3.9,10.7-4.2,16.5-.6a38.36,38.36,0,0,1,8.7,7.3c8.9,10.4,19.6,18.5,30.9,26,2,1.3,4,2.7,6,3.9a11.69,11.69,0,0,0,6.5,2.1c2.4,0,4.4-.8,5.3-3.1,1-2.5,1-4.9-.8-7.1a8,8,0,0,0-2.8-2,4,4,0,0,1-1.9-3.5q.15-1.65,2.4-2.1c5.3-1.3,12.3,2,15.2,7.2a22.47,22.47,0,0,1,2.4,8c0,.2-.1.6.2.7v2.6a9.37,9.37,0,0,0-.6,2.8c-2.4,10.2-8.7,17-18.1,21.1-6,2.6-12.5,3.1-18.9,2.8-11.7-.6-22.2-5.1-32.4-10.5-4.5-2.4-8.7-5.4-13.4-7.5a37.89,37.89,0,0,0-8.6-2.9c-3.9-.8-7.5.1-11.1,1.5-6.5,2.5-12.6,5.8-19,8.4a107.89,107.89,0,0,1-22.8,7.2c-8.2,1.5-16.4,2.1-24.4-.6-6.1-2-11.8-4.8-16-10a21.8,21.8,0,0,1,1.4-29.9c4.2-4,9.2-5,14.8-3.6a4.27,4.27,0,0,1,2.1,1.1,2.36,2.36,0,0,1,.8,2.4,2.22,2.22,0,0,1-1.7,1.9,9.08,9.08,0,0,0-5.8,4.7,5.44,5.44,0,0,0,.6,6.3c1.5,1.9,3.4,2.3,5.7,1.9a19.57,19.57,0,0,0,4.7-2c9.3-4.8,17.5-11.1,25.3-18.1,5.7-5.2,11.5-10.2,17.6-14.9a22.62,22.62,0,0,1,10.5-4.9c.1,0,.1-.1.2-.2C91.06,214.58,92.06,214.58,93.16,214.58Z"/><path class="cls-1" d="M25.86,236.88a9.34,9.34,0,0,1,5,.9,1.89,1.89,0,0,1,1.1,1.8c-.1.9-.7,1-1.3,1.2a10.46,10.46,0,0,0-6.8,7.2c-.8,3.2,1.8,7,5,7.7a7.72,7.72,0,0,0,5.2-.8,85.42,85.42,0,0,0,15.7-9.3,168.35,168.35,0,0,0,16-13.3,145.74,145.74,0,0,1,16.7-13.6,18.73,18.73,0,0,1,8.6-3.2c2.6-.3,4.7.9,6.7,2.5,1.5,1.2,3,2.4,4.5,3.5a3.91,3.91,0,0,0,4.8.2c2.3-1.4,4.3-3.2,6.7-4.5,4.1-2.1,8.2-1.6,12.1.6a48.76,48.76,0,0,1,11.8,10.4,95.53,95.53,0,0,0,9.7,9.4c4.4,3.7,8.9,7.2,13.6,10.5,3.8,2.7,7.6,5.2,11.5,7.7a12.53,12.53,0,0,0,8.2,1.9c2.6-.2,5-2.8,5.3-5.6.5-3.9-.8-6.5-4.5-8.4a2.83,2.83,0,0,1-1.5-2.2c-.2-1,.7-1.3,1.4-1.6a8.69,8.69,0,0,1,4.8.1c5.8,1.3,9.4,4.9,10.9,10.6,1.4,5.3.6,10.2-1.6,15.1a28.17,28.17,0,0,1-5.9,8.5,31.77,31.77,0,0,1-17.5,8.5,56.56,56.56,0,0,1-8.2.6,49.78,49.78,0,0,1-14.9-2.2,111.46,111.46,0,0,1-25.3-11.6,55.54,55.54,0,0,0-15.5-7,19.71,19.71,0,0,0-11.5.9c-6.2,2.2-12,5.3-18,7.9a117.52,117.52,0,0,1-23.9,7.9,61.46,61.46,0,0,1-16,1.3,36.67,36.67,0,0,1-13-3.3,30.23,30.23,0,0,1-10.1-6.7,21.07,21.07,0,0,1,.6-30.3A13.14,13.14,0,0,1,25.86,236.88Z"/><path class="cls-2" d="M27.76,239.88c-.3.4-.7.4-1.1.5-5.9,1.4-8.2,9.3-5.9,13.7a8.24,8.24,0,0,0,4.1,3.7,14,14,0,0,0,12-.3,108.45,108.45,0,0,0,19.4-12.1c7.5-5.8,14.8-11.8,21.9-18.1a35.35,35.35,0,0,1,8.8-5.8c4.5-2,8.5-1.2,12.1,1.9.6.6,1.2,1.2,1.8,1.7a4.83,4.83,0,0,0,7,0c.6-.5,1.1-1,1.7-1.6,4.7-4.4,10.4-4.4,15.7-.8a55.66,55.66,0,0,1,8.2,7.2,205.78,205.78,0,0,0,36.3,28.9,17.15,17.15,0,0,0,8.1,3.1,11.26,11.26,0,0,0,11.8-13.7,6.9,6.9,0,0,0-2.9-4c-1-.7-2-1.3-3.2-2.1a3.6,3.6,0,0,1,2.1.1c6.8,1.9,10,6.9,9.3,13.9-1.2,10.7-10.2,20.5-21,23.2-6.7,1.7-13.3,1.1-19.9-.4a75.79,75.79,0,0,1-24.4-10.2,104.09,104.09,0,0,0-18.1-9.5,20.4,20.4,0,0,0-15.9.1,175.58,175.58,0,0,0-17,8,89,89,0,0,1-26,8.9,46,46,0,0,1-14.8.7,31.59,31.59,0,0,1-18-8.3,19.49,19.49,0,0,1-4.9-20.5,16,16,0,0,1,6-7.6A6.81,6.81,0,0,1,27.76,239.88Z"/></g></g></svg>